<svg width="22" height="22" viewBox="0 0 22 22" fill="none" xmlns="http://www.w3.org/2000/svg">
<path fill-rule="evenodd" clip-rule="evenodd" d="M3.33204 0.25C3.01899 0.249967 2.72283 0.361892 2.48782 0.555655C2.25407 0.748383 2.09441 1.00989 2.02022 1.29356L0.30015 7.87855C0.250497 8.06145 0.237666 8.25259 0.261874 8.43999C0.286348 8.62945 0.34857 8.81407 0.447193 8.98089C0.545894 9.14783 0.679928 9.29485 0.843746 9.40797C0.925414 9.46437 1.01328 9.51147 1.10577 9.54811V18.7778C1.10577 19.5455 1.38401 20.2937 1.89743 20.8552C2.4129 21.419 3.12716 21.75 3.88775 21.75H18.1116C18.8722 21.75 19.5864 21.419 20.1019 20.8552C20.6153 20.2937 20.8936 19.5455 20.8936 18.7778V9.5494C20.9863 9.51271 21.0745 9.46548 21.1564 9.40892C21.3206 9.29548 21.4549 9.14797 21.5537 8.98048C21.6523 8.81312 21.7144 8.6279 21.7385 8.43789C21.7623 8.25041 21.7491 8.05927 21.699 7.87644L19.9792 1.29376C19.905 1.01008 19.7453 0.74838 19.5116 0.555655C19.2766 0.361894 18.9804 0.249967 18.6674 0.25H3.33204ZM6.63443 1.75H3.45132L1.77636 8.1623C2.16331 8.20985 2.64768 8.25241 3.14176 8.25431C3.72249 8.25655 4.26274 8.20189 4.665 8.0668C5.14613 7.90489 5.80966 7.50736 6.21593 7.24511C6.21665 7.23207 6.21754 7.21903 6.21861 7.20601L6.63443 1.75ZM6.93566 8.56548C6.50354 8.84031 5.76763 9.2785 5.14288 9.48864C4.51289 9.70022 3.78232 9.75679 3.13599 9.7543C2.95595 9.75361 2.7782 9.74828 2.60577 9.73966V18.7778C2.60577 19.1888 2.7557 19.571 3.00442 19.843C3.25109 20.1128 3.57051 20.25 3.88775 20.25H7.0321V14.3333C7.0321 13.5656 7.31034 12.8173 7.82376 12.2558C8.33923 11.6921 9.05349 11.3611 9.81408 11.3611H11.8461C12.6066 11.3611 13.3209 11.6921 13.8364 12.2558C14.3498 12.8173 14.628 13.5656 14.628 14.3333V20.25H18.1116C18.4288 20.25 18.7483 20.1128 18.9949 19.843C19.2436 19.571 19.3936 19.1888 19.3936 18.7778V9.7402C19.221 9.74883 19.0432 9.75416 18.863 9.75486C18.2169 9.75734 17.4865 9.7009 16.8562 9.48852C16.2314 9.27829 15.4965 8.84018 15.0638 8.56456C14.636 8.8372 13.8992 9.27692 13.2712 9.48852C12.4633 9.76072 11.7428 9.91111 10.9997 9.91111C10.2566 9.91111 9.53611 9.76072 8.72826 9.48852C8.1 9.27683 7.36235 8.83657 6.93566 8.56548ZM7.71734 7.28492L8.1388 1.75H13.8606L14.282 7.28404C13.8698 7.54778 13.248 7.91347 12.7922 8.06704C12.0832 8.30595 11.5302 8.41111 10.9997 8.41111C10.4692 8.41111 9.91625 8.30595 9.20723 8.06704C8.75159 7.91352 8.13057 7.54833 7.71734 7.28492ZM15.7809 7.2064C15.7819 7.21893 15.7827 7.23148 15.7834 7.24403C16.1905 7.50725 16.8536 7.90508 17.3347 8.06691C17.7366 8.20231 18.2766 8.2571 18.8573 8.25487C19.3512 8.25297 19.8357 8.21041 20.2235 8.16313L18.5481 1.75H15.365L15.7809 7.2064ZM13.128 20.25H8.5321V14.3333C8.5321 13.9223 8.68203 13.5401 8.93075 13.2681C9.17742 12.9983 9.49684 12.8611 9.81408 12.8611H11.8461C12.1633 12.8611 12.4827 12.9983 12.7294 13.2681C12.9781 13.5401 13.128 13.9223 13.128 14.3333V20.25Z" fill="#323232"/>
</svg>
