<svg width="17" height="22" viewBox="0 0 17 22" fill="none" xmlns="http://www.w3.org/2000/svg">
<path d="M14.5 8C14.5 6.4087 13.8679 4.88258 12.7426 3.75736C11.6174 2.63214 10.0913 2 8.5 2C6.9087 2 5.38258 2.63214 4.25736 3.75736C3.13214 4.88258 2.5 6.4087 2.5 8V16H14.5V8ZM16.5 16.667L16.9 17.2C16.9557 17.2743 16.9896 17.3626 16.998 17.4551C17.0063 17.5476 16.9887 17.6406 16.9472 17.7236C16.9057 17.8067 16.8419 17.8765 16.7629 17.9253C16.6839 17.9741 16.5929 18 16.5 18H0.5C0.407144 18 0.316123 17.9741 0.237135 17.9253C0.158147 17.8765 0.094313 17.8067 0.0527866 17.7236C0.0112601 17.6406 -0.0063184 17.5476 0.00202058 17.4551C0.0103596 17.3626 0.0442865 17.2743 0.1 17.2L0.5 16.667V8C0.5 5.87827 1.34286 3.84344 2.84315 2.34315C4.34344 0.842855 6.37827 0 8.5 0C10.6217 0 12.6566 0.842855 14.1569 2.34315C15.6571 3.84344 16.5 5.87827 16.5 8V16.667ZM6 19H11C11 19.663 10.7366 20.2989 10.2678 20.7678C9.79893 21.2366 9.16304 21.5 8.5 21.5C7.83696 21.5 7.20107 21.2366 6.73223 20.7678C6.26339 20.2989 6 19.663 6 19Z" fill="#323232"/>
</svg>
