<svg width="20" height="14" viewBox="0 0 20 14" fill="none" xmlns="http://www.w3.org/2000/svg">
<path d="M10 0.0239258C5.99769 0.0239258 2.62462 2.79777 1.53846 6.58623C0.567692 7.17085 0 8.297 0 9.61546C0 11.527 1.16538 13.077 3.07692 13.077C3.28094 13.077 3.47659 12.996 3.62085 12.8517C3.76511 12.7074 3.84615 12.5118 3.84615 12.3078V6.92316C3.84615 6.56931 3.59462 6.29162 3.26923 6.20162C4.39231 3.44623 6.98462 1.51546 10 1.51546C13.0154 1.51546 15.6077 3.44623 16.7308 6.20239C16.4054 6.29239 16.1538 6.56931 16.1538 6.92316V12.3078C16.1538 12.5118 16.2349 12.7074 16.3791 12.8517C16.5234 12.996 16.7191 13.077 16.9231 13.077C17.1023 13.077 17.2623 13.0555 17.4277 13.0285C17.1792 14.4639 16.5762 15.5339 15.9615 16.2747C15.6468 16.6571 15.2832 16.9964 14.88 17.2839C14.7657 17.3654 14.645 17.4377 14.5192 17.5001C14.4746 17.5216 14.4377 17.5416 14.4231 17.5485H12.9808C12.7038 16.7439 11.8223 16.1539 10.7692 16.1539C9.49462 16.1539 8.46154 17.0155 8.46154 18.077C8.46154 19.1385 9.49462 20.0001 10.7692 20.0001C11.8223 20.0001 12.7038 19.4093 12.9808 18.6055H14.4954C14.7554 18.6055 14.8215 18.5362 14.9762 18.4616C15.13 18.3862 15.3123 18.2839 15.5046 18.1493C15.8892 17.8801 16.3546 17.4878 16.8031 16.947C17.6138 15.9701 18.3692 14.5201 18.5577 12.5724C19.4654 11.9693 20 10.8862 20 9.61546C20 8.297 19.4323 7.17162 18.4615 6.58623C17.3754 2.79777 14.0023 0.024695 10 0.024695V0.0239258Z" fill="#323232"/>
</svg>
