<svg width="20" height="20" viewBox="0 0 20 20" fill="none" xmlns="http://www.w3.org/2000/svg">
<path d="M10.78 0.128058L18.5578 2.76974C18.9815 2.91358 19.3466 3.17113 19.6043 3.50796C19.862 3.84478 20.0001 4.24484 20 4.65464V10.0517C20 11.7338 19.4829 13.3826 18.5066 14.8135C17.5303 16.2443 16.1333 17.4006 14.4722 18.1529L10.7456 19.8405C10.5141 19.9454 10.2588 20 10 20C9.74118 20 9.48592 19.9454 9.25445 19.8405L5.52778 18.1529C3.86671 17.4006 2.46974 16.2443 1.49341 14.8135C0.517079 13.3826 -4.00352e-05 11.7338 1.7242e-08 10.0517V4.65464C-5.63316e-05 4.24484 0.138004 3.84478 0.395726 3.50796C0.653447 3.17113 1.01855 2.91358 1.44222 2.76974L9.22 0.128058C9.72291 -0.0426859 10.2771 -0.0426859 10.78 0.128058ZM10 2.01296L2.22222 4.65464V10.0517C2.22248 11.3599 2.62488 12.6421 3.38435 13.7548C4.14382 14.8674 5.23035 15.7666 6.52222 16.3515L10 17.9285L13.4778 16.3535C14.77 15.7685 15.8567 14.869 16.6162 13.7559C17.3757 12.6428 17.7779 11.3602 17.7778 10.0517V4.65464L10 2.01296ZM10 5.96995C10.4743 5.96977 10.9362 6.10704 11.3182 6.36169C11.7002 6.61633 11.9822 6.97499 12.123 7.3852C12.2638 7.79541 12.2559 8.23567 12.1007 8.64157C11.9454 9.04748 11.6508 9.39774 11.26 9.64113L11.1111 9.72667V13.0144C11.1108 13.2709 11.0024 13.5176 10.8079 13.7042C10.6135 13.8907 10.3478 14.0029 10.0651 14.0179C9.7824 14.033 9.50402 13.9497 9.28685 13.785C9.06968 13.6204 8.93012 13.3869 8.89667 13.1322L8.88889 13.0144V9.72667C8.46472 9.50535 8.1331 9.16337 7.94554 8.75383C7.75797 8.3443 7.72496 7.89013 7.85163 7.46186C7.9783 7.03358 8.25756 6.65518 8.64604 6.3854C9.03452 6.11563 9.51048 5.96958 10 5.96995Z" fill="#323232"/>
</svg>
