<svg width="15" height="20" viewBox="0 0 15 20" fill="none" xmlns="http://www.w3.org/2000/svg">
<path d="M5 0C4.33696 0 3.70107 0.263392 3.23223 0.732233C2.76339 1.20107 2.5 1.83696 2.5 2.5V15C2.5 15.663 2.76339 16.2989 3.23223 16.7678C3.70107 17.2366 4.33696 17.5 5 17.5H12.5C13.163 17.5 13.7989 17.2366 14.2678 16.7678C14.7366 16.2989 15 15.663 15 15V2.5C15 1.83696 14.7366 1.20107 14.2678 0.732233C13.7989 0.263392 13.163 0 12.5 0H5ZM3.75 2.5C3.75 2.16848 3.8817 1.85054 4.11612 1.61612C4.35054 1.3817 4.66848 1.25 5 1.25H12.5C12.8315 1.25 13.1495 1.3817 13.3839 1.61612C13.6183 1.85054 13.75 2.16848 13.75 2.5V15C13.75 15.3315 13.6183 15.6495 13.3839 15.8839C13.1495 16.1183 12.8315 16.25 12.5 16.25H5C4.66848 16.25 4.35054 16.1183 4.11612 15.8839C3.8817 15.6495 3.75 15.3315 3.75 15V2.5ZM0 5C1.1148e-05 4.56117 0.115532 4.13007 0.334952 3.75004C0.554373 3.37 0.869961 3.05442 1.25 2.835V15.625C1.25 16.4538 1.57924 17.2487 2.16529 17.8347C2.75134 18.4208 3.5462 18.75 4.375 18.75H12.165C11.9456 19.13 11.63 19.4456 11.25 19.665C10.8699 19.8845 10.4388 20 10 20H4.375C3.21468 20 2.10188 19.5391 1.28141 18.7186C0.460936 17.8981 0 16.7853 0 15.625V5Z" fill="#FDAC15"/>
</svg>
