<svg width="20" height="20" viewBox="0 0 20 20" fill="none" xmlns="http://www.w3.org/2000/svg">
<path d="M10.0029 0.802346C10.1713 0.591035 10.3877 0.412366 10.6386 0.277486C10.8894 0.142607 11.1694 0.0544118 11.4609 0.0184037C11.7525 -0.0176045 12.0494 -0.000652974 12.3331 0.0682006C12.6168 0.137054 12.8813 0.256332 13.11 0.418593L17.7814 3.73737C18.1988 4.03374 18.4737 4.45656 18.5515 4.92195C18.6293 5.38735 18.5043 5.86133 18.2014 6.24989H16.4586L17.0157 5.55113C17.1194 5.4217 17.1632 5.2627 17.1383 5.10614C17.1134 4.94957 17.0216 4.80709 16.8814 4.70738L14.4757 2.99986L11.91 6.24989H10.1714L13.3629 2.20986L12.2086 1.38985C12.1324 1.33574 12.0442 1.29596 11.9497 1.27297C11.8551 1.24999 11.7562 1.2443 11.659 1.25626C11.5618 1.26823 11.4685 1.29759 11.3848 1.34251C11.3012 1.38743 11.229 1.44695 11.1729 1.51735L7.4 6.24864H5.65714L10.0029 0.802346ZM15 13.7499C14.8106 13.7499 14.6289 13.8158 14.4949 13.933C14.361 14.0502 14.2857 14.2092 14.2857 14.375C14.2857 14.5407 14.361 14.6997 14.4949 14.8169C14.6289 14.9341 14.8106 15 15 15H16.4286C16.618 15 16.7997 14.9341 16.9336 14.8169C17.0676 14.6997 17.1429 14.5407 17.1429 14.375C17.1429 14.2092 17.0676 14.0502 16.9336 13.933C16.7997 13.8158 16.618 13.7499 16.4286 13.7499H15ZM2.14286 4.99988H5.24143L4.24143 6.24989H2.14286C1.95342 6.24989 1.77174 6.31574 1.63778 6.43295C1.50383 6.55016 1.42857 6.70913 1.42857 6.87489C1.42857 7.04066 1.50383 7.19963 1.63778 7.31684C1.77174 7.43405 1.95342 7.4999 2.14286 7.4999H17.1429C17.9006 7.4999 18.6273 7.76329 19.1632 8.23214C19.699 8.70098 20 9.33687 20 9.99992V17.5C20 18.163 19.699 18.7989 19.1632 19.2678C18.6273 19.7366 17.9006 20 17.1429 20H3.57143C2.62423 20 1.71582 19.6708 1.04605 19.0847C0.376274 18.4986 0 17.7038 0 16.875V6.87489C0 6.37761 0.225765 5.90069 0.627628 5.54906C1.02949 5.19742 1.57454 4.99988 2.14286 4.99988ZM1.42857 16.875C1.42857 17.3723 1.65434 17.8492 2.0562 18.2008C2.45806 18.5524 3.00311 18.75 3.57143 18.75H17.1429C17.5217 18.75 17.8851 18.6183 18.153 18.3839C18.4209 18.1494 18.5714 17.8315 18.5714 17.5V9.99992C18.5714 9.6684 18.4209 9.35045 18.153 9.11603C17.8851 8.88161 17.5217 8.74991 17.1429 8.74991H2.14286C1.89286 8.74991 1.65143 8.71241 1.42857 8.64366V16.875Z" fill="#323232"/>
</svg>
