<svg width="18" height="18" viewBox="0 0 18 18" fill="none" xmlns="http://www.w3.org/2000/svg">
<path d="M3 10.5L3 0.75M3 10.5C3.39782 10.5 3.77936 10.658 4.06066 10.9393C4.34196 11.2206 4.5 11.6022 4.5 12C4.5 12.3978 4.34196 12.7794 4.06066 13.0607C3.77936 13.342 3.39782 13.5 3 13.5M3 10.5C2.60218 10.5 2.22064 10.658 1.93934 10.9393C1.65804 11.2206 1.5 11.6022 1.5 12C1.5 12.3978 1.65804 12.7794 1.93934 13.0607C2.22064 13.342 2.60218 13.5 3 13.5M3 13.5V17.25M15 10.5L15 0.75M15 10.5C15.3978 10.5 15.7794 10.658 16.0607 10.9393C16.342 11.2206 16.5 11.6022 16.5 12C16.5 12.3978 16.342 12.7794 16.0607 13.0607C15.7794 13.342 15.3978 13.5 15 13.5M15 10.5C14.6022 10.5 14.2206 10.658 13.9393 10.9393C13.658 11.2206 13.5 11.6022 13.5 12C13.5 12.3978 13.658 12.7794 13.9393 13.0607C14.2206 13.342 14.6022 13.5 15 13.5M15 13.5V17.25M9 4.5V0.75M9 4.5C9.39782 4.5 9.77936 4.65804 10.0607 4.93934C10.342 5.22065 10.5 5.60218 10.5 6C10.5 6.39782 10.342 6.77936 10.0607 7.06066C9.77936 7.34196 9.39782 7.5 9 7.5M9 4.5C8.60218 4.5 8.22064 4.65804 7.93934 4.93934C7.65804 5.22065 7.5 5.60218 7.5 6C7.5 6.39782 7.65804 6.77936 7.93934 7.06066C8.22064 7.34196 8.60218 7.5 9 7.5M9 7.5V17.25" stroke="#898989" stroke-width="1.5" stroke-linecap="round" stroke-linejoin="round"/>
</svg>
