<svg width="345" height="173" viewBox="0 0 345 173" fill="none" xmlns="http://www.w3.org/2000/svg">
<g clip-path="url(#clip0_2192_2722)">
<path d="M30.0275 5.6084C88.4995 39.2641 108.452 76.3802 115.684 104.537C123.754 135.961 119.592 170.307 128.303 172.44C133.881 173.806 140.745 160.981 153.541 132.867C192.345 47.6153 193.224 24.9755 209.756 19.0996C232.916 10.8622 247.193 49.6149 282.793 48.7796C308.939 48.1647 330.097 26.5877 344.357 7.40817" stroke="white" stroke-opacity="0.3" stroke-width="0.475543" stroke-miterlimit="10"/>
<path d="M28.6229 8.99112C85.4481 41.9222 106.548 77.9999 114.352 104.389C123.074 133.879 118.955 166.45 127.576 167.991C133.118 168.982 139.853 156.376 152.213 129.226C189.777 46.7281 190.942 23.8065 207.347 18.2206C230.642 10.4004 244.296 51.9563 280.273 52.5221C281.058 52.5344 281.83 52.5344 282.603 52.5098C308.129 51.6744 329.589 30.0873 344.154 11.0256" stroke="white" stroke-opacity="0.3" stroke-width="0.475543" stroke-miterlimit="10"/>
<path d="M27.224 12.3742C82.3985 44.5775 104.628 79.5556 113.026 104.239C122.386 131.752 118.326 162.59 126.853 163.54C132.362 164.155 138.968 151.768 150.889 125.582C187.205 45.8423 188.65 22.5651 204.946 17.342C228.354 9.83953 241.414 54.3185 277.761 56.2659C278.559 56.3089 279.354 56.352 280.149 56.3468C306.097 56.1788 328.671 34.1458 343.956 14.6444" stroke="white" stroke-opacity="0.3" stroke-width="0.475543" stroke-miterlimit="10"/>
<path d="M25.8206 15.7598C79.3523 47.2447 102.676 81.0386 111.696 104.092C121.669 129.583 117.696 158.729 126.126 159.091C131.603 159.327 138.073 147.164 149.562 121.942C184.634 44.951 186.365 21.3672 202.541 16.466C226.073 9.33659 238.532 56.7008 275.246 60.0123C276.061 60.0861 276.875 60.1569 277.686 60.1876C304.054 61.1777 327.746 38.2079 343.75 18.2678" stroke="white" stroke-opacity="0.3" stroke-width="0.475543" stroke-miterlimit="10"/>
<path d="M24.4194 19.1419C76.3051 49.8991 100.688 82.4398 110.367 103.941C120.913 127.366 117.073 154.861 125.402 154.639C130.849 154.494 137.185 142.554 148.237 118.297C182.064 44.0601 184.083 20.1689 200.139 15.5875C223.802 8.83521 235.657 59.0969 272.732 63.7593C273.565 63.8618 274.398 63.9643 275.234 64.0278C302.02 65.9158 326.83 42.2685 343.555 21.8857" stroke="white" stroke-opacity="0.3" stroke-width="0.475543" stroke-miterlimit="10"/>
<path d="M23.016 22.5261C73.256 52.5566 98.6461 83.7578 109.039 103.791C120.097 125.109 116.447 150.992 124.678 150.19C130.095 149.661 136.295 137.948 146.911 114.654C179.496 43.1713 181.801 18.9767 197.736 14.71C221.53 8.34 232.781 61.5115 270.219 67.501C271.069 67.6377 271.92 67.7757 272.778 67.8642C299.982 70.6415 325.914 46.326 343.355 25.5025" stroke="white" stroke-opacity="0.3" stroke-width="0.475543" stroke-miterlimit="10"/>
<path d="M21.6148 25.9082C70.2075 55.2151 96.54 84.9892 107.708 103.64C119.197 122.829 115.827 147.116 123.951 145.737C129.342 144.823 135.403 133.335 145.583 111.011C176.924 42.2815 179.52 17.7857 195.331 13.8314C219.259 7.84687 229.905 63.9384 267.703 71.2443C268.574 71.412 269.441 71.5844 270.317 71.6999C297.937 75.3613 324.991 50.3816 343.151 29.1204" stroke="white" stroke-opacity="0.3" stroke-width="0.475543" stroke-miterlimit="10"/>
<path d="M20.2137 29.2925C67.1602 57.8748 91.7683 89.1485 106.38 103.492C115.23 122.87 115.208 143.236 123.227 141.288C128.591 139.984 134.514 128.732 144.259 107.362C174.355 41.3877 177.241 16.5956 192.928 12.9489C216.991 7.35586 227.029 66.3765 265.189 74.9843C266.076 75.1837 266.964 75.389 267.863 75.5343C295.9 80.0699 324.078 54.4392 342.955 32.7352" stroke="white" stroke-opacity="0.3" stroke-width="0.475543" stroke-miterlimit="10"/>
<path d="M18.8102 32.6758C64.1111 60.5335 89.3847 90.9742 105.05 103.342C114.011 121 114.587 139.351 122.501 136.836C127.838 135.141 133.623 124.128 142.931 103.724C171.78 40.5032 174.962 15.418 190.524 12.0757C214.722 6.87927 224.151 68.8375 262.673 78.7335C263.578 78.9659 264.484 79.2036 265.405 79.378C293.859 84.7806 323.154 58.5031 342.753 36.3595" stroke="white" stroke-opacity="0.3" stroke-width="0.475543" stroke-miterlimit="10"/>
<path d="M17.408 36.0595C61.0626 63.1925 87.0006 92.798 103.72 103.193C112.793 119.13 113.966 135.462 121.776 132.387C127.086 130.297 132.733 119.52 141.604 100.082C169.214 39.6109 172.684 14.2407 188.121 11.1997C212.456 6.40407 221.272 71.3057 260.159 82.4794C261.081 82.7442 262.006 83.0136 262.948 83.2176C291.82 89.4819 322.235 62.5643 342.553 39.9798" stroke="white" stroke-opacity="0.3" stroke-width="0.475543" stroke-miterlimit="10"/>
<path d="M16.0068 39.4414C58.0158 65.8499 84.6183 94.6204 102.391 103.041C111.575 117.258 113.345 131.565 121.05 127.934C126.334 125.445 131.844 114.91 140.279 96.4402C166.644 38.726 170.408 13.0668 185.717 10.3221C210.19 5.93433 218.391 73.7851 257.644 86.2246C258.585 86.5224 259.529 86.8222 260.49 87.0566C289.783 94.1767 321.316 66.6235 342.353 43.5996" stroke="white" stroke-opacity="0.3" stroke-width="0.475543" stroke-miterlimit="10"/>
<path d="M14.6034 42.8268C54.9643 68.5087 82.2359 96.4462 101.062 102.888C110.357 115.384 112.721 127.663 120.323 123.48C125.578 120.59 130.952 110.299 138.951 92.7901C164.071 37.8302 168.13 11.8902 183.313 9.43854C207.925 5.46285 215.506 76.264 255.129 89.9627C256.088 90.2935 257.047 90.6243 258.033 90.8851C287.745 98.857 320.395 70.6745 342.151 47.2094" stroke="white" stroke-opacity="0.3" stroke-width="0.475543" stroke-miterlimit="10"/>
<path d="M13.2023 46.2092C51.9176 71.1664 79.8512 98.2699 99.733 102.742C109.141 113.516 112.096 123.764 119.6 119.033C124.824 115.738 130.063 105.694 137.626 89.1498C161.507 36.9438 165.856 10.7261 180.909 8.56343C205.662 5.00793 212.617 78.7665 252.616 93.7099C253.591 94.0744 254.573 94.4355 255.579 94.7294C285.713 103.544 319.479 74.7433 341.954 50.8337" stroke="white" stroke-opacity="0.3" stroke-width="0.475543" stroke-miterlimit="10"/>
<path d="M11.8022 49.593C48.8686 73.8254 77.4671 100.094 98.4037 102.59C107.921 111.644 111.467 119.859 118.875 114.582C124.067 110.882 129.173 101.087 136.301 85.5076C158.934 36.0546 163.58 9.56016 178.505 7.68555C203.399 4.55541 209.726 81.2757 250.1 97.4545C251.094 97.8533 252.094 98.2442 253.119 98.5684C283.676 108.227 318.557 78.7995 341.756 54.4533" stroke="white" stroke-opacity="0.3" stroke-width="0.475543" stroke-miterlimit="10"/>
<path d="M10.3976 52.9761C45.8194 76.4838 75.0835 101.917 97.0738 102.441C106.703 109.775 110.836 115.953 118.149 110.128C123.308 106.021 128.282 96.4785 134.97 81.862C156.36 35.1628 161.3 8.40075 176.098 6.80591C201.131 4.10729 206.826 83.7782 247.582 101.197C248.593 101.629 249.613 102.05 250.658 102.405C281.641 112.902 317.633 82.8558 341.548 58.07" stroke="white" stroke-opacity="0.3" stroke-width="0.475543" stroke-miterlimit="10"/>
<path d="M8.99652 56.3592C42.7719 79.1422 72.7012 103.742 95.7451 102.292C105.487 107.904 110.204 112.045 117.425 105.68C122.548 101.164 127.393 91.8722 133.649 78.2198C153.794 34.2761 159.029 7.24652 173.699 5.92948C198.873 3.6695 203.932 86.3006 245.072 104.938C246.1 105.403 247.139 105.854 248.209 106.239C279.614 117.577 316.718 86.9173 341.352 61.695" stroke="white" stroke-opacity="0.3" stroke-width="0.475543" stroke-miterlimit="10"/>
<path d="M7.59418 59.7428C39.7241 81.8006 70.3176 105.562 94.4158 102.142C104.265 106.037 109.568 108.135 116.7 101.229C121.784 96.3042 126.503 87.2653 132.323 74.5808C151.224 33.3908 156.754 6.09785 171.296 5.05652C196.61 3.24239 201.029 88.8282 242.558 108.692C243.604 109.192 244.662 109.671 245.748 110.087C277.586 122.246 315.801 90.9769 341.151 65.3103" stroke="white" stroke-opacity="0.3" stroke-width="0.475543" stroke-miterlimit="10"/>
<path d="M6.19196 63.1287C36.6755 84.4616 67.9336 107.393 93.0859 101.994C103.051 104.166 108.929 104.229 115.973 96.7816C121.019 91.4516 125.613 82.661 130.995 70.9366C148.653 32.5017 154.477 4.94735 168.892 4.1766C194.347 2.81139 198.122 91.3513 240.043 112.428C241.105 112.963 242.184 113.471 243.291 113.917C275.559 126.91 314.88 95.0331 340.951 68.9227" stroke="white" stroke-opacity="0.3" stroke-width="0.475543" stroke-miterlimit="10"/>
<path d="M4.78967 66.5126C33.6259 87.1134 65.219 96.3452 91.7572 101.842C101.688 103.899 108.289 100.316 115.248 92.3272C120.254 86.5878 124.723 78.0501 129.67 67.2904C146.082 31.6074 152.201 3.79888 166.488 3.29564C192.082 2.39473 195.211 93.8862 237.528 116.177C238.607 116.745 239.707 117.283 240.833 117.759C273.533 131.578 313.956 99.0953 340.751 72.5484" stroke="white" stroke-opacity="0.3" stroke-width="0.475543" stroke-miterlimit="10"/>
<path d="M3.38733 69.8946C30.5799 89.7784 62.5662 108.153 90.4279 101.694C100.478 99.3634 107.645 96.4085 114.523 87.8781C119.485 81.7286 123.832 73.4451 128.343 63.6485C143.514 30.7195 149.923 2.65892 164.084 2.4201C189.816 1.98554 192.297 96.425 235.013 119.923C236.11 120.525 237.229 121.089 238.376 121.599C271.534 136.164 313.04 103.155 340.553 76.1669" stroke="white" stroke-opacity="0.3" stroke-width="0.475543" stroke-miterlimit="10"/>
<path d="M1.98505 73.278C27.5295 92.4368 60.3977 111.43 89.0986 101.544C99.2796 98.0368 107.001 92.4995 113.798 83.4276C118.716 76.8681 122.942 68.8368 127.017 60.0059C140.943 29.8298 147.647 1.4484 161.68 1.54167C187.549 1.71387 189.348 99.0372 232.499 123.667C233.611 124.306 234.751 124.896 235.918 125.437C269.501 140.863 312.12 107.215 340.35 79.788" stroke="white" stroke-opacity="0.3" stroke-width="0.475543" stroke-miterlimit="10"/>
<path d="M0.582764 76.6582C24.4808 95.0919 58.3994 114.683 87.7687 101.391C132.044 81.3496 135.874 0.190093 159.278 0.661561C185.956 1.19863 186.501 106.782 233.461 129.272C267.468 145.558 311.204 111.272 340.15 83.4032" stroke="white" stroke-opacity="0.3" stroke-width="0.475543" stroke-miterlimit="10"/>
</g>
<defs>
<clipPath id="clip0_2192_2722">
<rect width="345" height="173" fill="white"/>
</clipPath>
</defs>
</svg>
