<svg width="21" height="21" viewBox="0 0 21 21" fill="none" xmlns="http://www.w3.org/2000/svg">
<path d="M20.3459 9.6H10.9263V12.33H17.6135C17.2745 16.14 14.0182 17.77 10.9366 17.77C7.00231 17.77 3.55085 14.75 3.55085 10.5C3.55085 6.4 6.83796 3.23 10.9468 3.23C14.121 3.23 15.9802 5.2 15.9802 5.2L17.9319 3.22C17.9319 3.22 15.4255 0.5 10.8441 0.5C5.0095 0.5 0.5 5.3 0.5 10.5C0.5 15.55 4.74242 20.5 10.9982 20.5C16.4938 20.5 20.5 16.83 20.5 11.41C20.5 10.26 20.3459 9.6 20.3459 9.6Z" fill="#FFFEFD"/>
</svg>
