<svg width="20" height="20" viewBox="0 0 20 20" fill="none" xmlns="http://www.w3.org/2000/svg">
<path d="M20 18.7302V7.93651C20 7.73937 19.9548 7.54494 19.868 7.36862C19.7812 7.19229 19.6552 7.03892 19.5 6.92063L10.75 0.253968C10.5336 0.0891145 10.2705 0 10 0C9.72954 0 9.46637 0.0891145 9.25 0.253968L0.5 6.92063C0.344755 7.03892 0.218751 7.19229 0.131966 7.36862C0.0451812 7.54494 0 7.73937 0 7.93651V18.7302C0 19.0669 0.131696 19.3899 0.366117 19.6281C0.600537 19.8662 0.918479 20 1.25 20H18.75C19.0815 20 19.3995 19.8662 19.6339 19.6281C19.8683 19.3899 20 19.0669 20 18.7302Z" fill="#898989"/>
</svg>
