<svg width="20" height="20" viewBox="0 0 20 20" fill="none" xmlns="http://www.w3.org/2000/svg">
<path d="M12.1642 0H2.21168C1.62511 0 1.06256 0.210714 0.647786 0.585786C0.233015 0.960859 0 1.46957 0 2V18C0 18.5304 0.233015 19.0391 0.647786 19.4142C1.06256 19.7893 1.62511 20 2.21168 20H12.1642C12.7508 20 13.3134 19.7893 13.7281 19.4142C14.1429 19.0391 14.3759 18.5304 14.3759 18V17C14.3759 16.7348 14.2594 16.4804 14.052 16.2929C13.8447 16.1054 13.5634 16 13.2701 16C12.9768 16 12.6955 16.1054 12.4881 16.2929C12.2808 16.4804 12.1642 16.7348 12.1642 17V18H2.21168V2H12.1642V3C12.1642 3.26522 12.2808 3.51957 12.4881 3.70711C12.6955 3.89464 12.9768 4 13.2701 4C13.5634 4 13.8447 3.89464 14.052 3.70711C14.2594 3.51957 14.3759 3.26522 14.3759 3V2C14.3759 1.46957 14.1429 0.960859 13.7281 0.585786C13.3134 0.210714 12.7508 0 12.1642 0Z" fill="#323232"/>
<path d="M15.7085 14.295C15.2772 14.685 14.5805 14.685 14.1492 14.295C13.9425 14.1079 13.8263 13.8542 13.8261 13.5897C13.8259 13.3252 13.9417 13.0714 14.1481 12.884L16.2227 11H6.63504C6.34176 11 6.06048 10.8946 5.8531 10.7071C5.64571 10.5196 5.5292 10.2652 5.5292 10C5.5292 9.73479 5.64571 9.48043 5.8531 9.2929C6.06048 9.10536 6.34176 9 6.63504 9H16.2227L14.1481 7.116C13.9581 6.92591 13.8562 6.67708 13.8633 6.42093C13.8705 6.16479 13.9862 5.92092 14.1865 5.73974C14.3869 5.55857 14.6566 5.45393 14.9398 5.44746C15.2231 5.441 15.4983 5.5332 15.7085 5.705L19.6762 9.293C19.8835 9.48053 20 9.73484 20 10C20 10.2652 19.8835 10.5195 19.6762 10.707L15.7085 14.295Z" fill="#323232"/>
</svg>
