<svg width="18" height="20" viewBox="0 0 18 20" fill="none" xmlns="http://www.w3.org/2000/svg">
<path d="M14.2674 2.47004C14.1895 2.47024 14.113 2.44952 14.0458 2.41004C12.1967 1.42005 10.598 1.00005 8.68148 1.00005C6.7745 1.00005 4.96377 1.47005 3.31678 2.41004C3.08387 2.54171 2.79681 2.45004 2.66181 2.20838C2.60156 2.09174 2.58797 1.95653 2.6238 1.83023C2.65963 1.70392 2.74219 1.596 2.85472 1.52838C4.63103 0.520872 6.63938 -0.00590787 8.68148 4.99812e-05C10.7326 4.99812e-05 12.5242 0.470049 14.4891 1.52005C14.6037 1.58308 14.6891 1.68854 14.7269 1.8138C14.7646 1.93906 14.7518 2.07413 14.6911 2.19004C14.6547 2.27234 14.5954 2.34246 14.5203 2.39208C14.4452 2.44171 14.3574 2.46876 14.2674 2.47004ZM0.485268 7.72003C0.385199 7.71932 0.287759 7.6879 0.206117 7.63003C0.099897 7.55109 0.0284606 7.434 0.006855 7.30342C-0.0147506 7.17285 0.0151614 7.03899 0.0902902 6.93003C1.04399 5.53004 2.25684 4.43004 3.70217 3.66004C6.72617 2.04171 10.598 2.03004 13.6316 3.65004C15.0765 4.42004 16.2898 5.51004 17.2435 6.90003C17.3183 7.00909 17.3481 7.14286 17.3265 7.27334C17.3049 7.40382 17.2336 7.52089 17.1277 7.60003C17.0763 7.63846 17.0175 7.66592 16.9551 7.68073C16.8926 7.69554 16.8278 7.69738 16.7646 7.68613C16.7014 7.67489 16.6412 7.65079 16.5877 7.61534C16.5342 7.57989 16.4885 7.53384 16.4536 7.48003C15.5869 6.22004 14.4891 5.23004 13.1887 4.54004C10.4247 3.07004 6.88991 3.07004 4.13548 4.55004C2.82556 5.25004 1.7277 6.25003 0.861081 7.50836C0.823712 7.57458 0.768939 7.6293 0.702694 7.66662C0.63645 7.70393 0.561259 7.7224 0.485268 7.72003ZM6.50452 19.7917C6.44087 19.7923 6.37783 19.7792 6.31968 19.7533C6.26152 19.7274 6.20961 19.6894 6.16745 19.6417C5.32958 18.77 4.87544 18.2083 4.23173 17C3.5651 15.77 3.22053 14.27 3.22053 12.66C3.22053 9.69003 5.66665 7.27003 8.6719 7.27003C11.6771 7.27003 14.1249 9.69003 14.1249 12.66C14.1268 12.7244 14.1158 12.7886 14.0924 12.8486C14.0691 12.9087 14.0339 12.9635 13.989 13.0097C13.9441 13.056 13.8904 13.0927 13.8311 13.1178C13.7717 13.1429 13.7079 13.1558 13.6435 13.1558C13.5791 13.1558 13.5153 13.1429 13.4559 13.1178C13.3966 13.0927 13.3428 13.056 13.298 13.0097C13.2531 12.9635 13.2179 12.9087 13.1946 12.8486C13.1712 12.7886 13.1602 12.7244 13.1621 12.66C13.1621 10.24 11.1488 8.27003 8.67398 8.27003C6.19912 8.27003 4.18381 10.24 4.18381 12.66C4.18381 14.1 4.49171 15.43 5.07918 16.51C5.69581 17.66 6.12079 18.15 6.86117 18.93C6.94897 19.0271 6.99759 19.1533 6.99759 19.2842C6.99759 19.4151 6.94897 19.5413 6.86117 19.6383C6.76663 19.7337 6.63877 19.7887 6.50452 19.7917ZM13.4104 17.9417C12.2642 17.9417 11.253 17.6417 10.4247 17.0517C9.71904 16.557 9.14254 15.9001 8.74375 15.1361C8.34496 14.3721 8.13556 13.5235 8.13318 12.6617C8.13048 12.5967 8.14093 12.5319 8.16392 12.4711C8.18691 12.4103 8.22195 12.3548 8.26694 12.3079C8.31193 12.261 8.36594 12.2237 8.42572 12.1982C8.48551 12.1727 8.54983 12.1596 8.61482 12.1596C8.67981 12.1596 8.74413 12.1727 8.80391 12.1982C8.8637 12.2237 8.9177 12.261 8.9627 12.3079C9.00769 12.3548 9.04273 12.4103 9.06572 12.4711C9.0887 12.5319 9.09916 12.5967 9.09646 12.6617C9.09808 13.3617 9.26879 14.0509 9.59407 14.6708C9.91935 15.2906 10.3896 15.8227 10.9647 16.2217C11.6484 16.7017 12.4479 16.93 13.4112 16.93C13.7467 16.924 14.0811 16.8906 14.4112 16.83C14.6711 16.78 14.9216 16.96 14.9695 17.24C14.9939 17.3692 14.966 17.5029 14.8921 17.6116C14.8181 17.7203 14.7041 17.7953 14.5749 17.82C14.1913 17.8958 13.8014 17.936 13.4104 17.94V17.9417ZM11.4742 20C11.4319 19.9982 11.39 19.9915 11.3492 19.98C9.81767 19.54 8.81606 18.95 7.76612 17.88C6.41744 16.49 5.67623 14.64 5.67623 12.66C5.67623 11.04 7.00532 9.72003 8.64232 9.72003C10.2793 9.72003 11.6088 11.04 11.6088 12.66C11.6088 13.73 12.5046 14.6 13.612 14.6C14.7195 14.6 15.6153 13.73 15.6153 12.66C15.6153 8.89003 12.485 5.83004 8.63273 5.83004C5.89747 5.83004 3.39344 7.41003 2.26684 9.86003C1.89186 10.67 1.69853 11.62 1.69853 12.66C1.69853 13.44 1.76561 14.67 2.3435 16.27C2.44016 16.53 2.31475 16.82 2.06435 16.91C2.00484 16.9327 1.94136 16.9431 1.87773 16.9406C1.8141 16.9381 1.75163 16.9228 1.69408 16.8955C1.63652 16.8683 1.58506 16.8297 1.5428 16.7821C1.50053 16.7344 1.46833 16.6787 1.44813 16.6183C0.983435 15.3503 0.745377 14.0105 0.744837 12.66C0.744837 11.46 0.966492 10.3684 1.3998 9.42003C2.68098 6.62837 5.52207 4.82004 8.63273 4.82004C13.015 4.82004 16.5785 8.33003 16.5785 12.65C16.5785 14.27 15.2495 15.59 13.612 15.59C11.9746 15.59 10.6455 14.27 10.6455 12.65C10.646 11.58 9.75017 10.7084 8.64273 10.7084C7.53529 10.7084 6.63951 11.5784 6.63951 12.6484C6.63951 14.3567 7.27531 15.9583 8.44066 17.1583C9.35728 18.0983 10.2322 18.6167 11.5901 19.0083C11.8501 19.0783 11.9946 19.3583 11.9271 19.6183C11.9061 19.7239 11.8498 19.8191 11.7675 19.8885C11.6852 19.9578 11.5818 19.9972 11.4742 20Z" fill="#323232"/>
</svg>
