<svg width="48" height="48" viewBox="0 0 48 48" fill="none" xmlns="http://www.w3.org/2000/svg">
<path d="M24 0C19.2533 0 14.6131 1.40758 10.6663 4.04473C6.71954 6.68188 3.6434 10.4302 1.8269 14.8156C0.0103988 19.201 -0.464881 24.0266 0.461164 28.6822C1.38721 33.3377 3.67299 37.6141 7.02945 40.9706C10.3859 44.327 14.6623 46.6128 19.3178 47.5388C23.9734 48.4649 28.799 47.9896 33.1844 46.1731C37.5698 44.3566 41.3181 41.2805 43.9553 37.3337C46.5924 33.3869 48 28.7467 48 24C47.9878 17.6385 45.4553 11.5411 40.9571 7.04291C36.4589 2.54468 30.3615 0.0121984 24 0ZM24 44.3077C19.9835 44.3077 16.0572 43.1167 12.7177 40.8852C9.37808 38.6538 6.77519 35.4822 5.23815 31.7714C3.70111 28.0607 3.29895 23.9775 4.08252 20.0382C4.8661 16.0989 6.80022 12.4804 9.6403 9.64029C12.4804 6.80021 16.0989 4.86609 20.0382 4.08251C23.9775 3.29894 28.0607 3.7011 31.7714 5.23814C35.4822 6.77518 38.6538 9.37807 40.8852 12.7176C43.1167 16.0572 44.3077 19.9835 44.3077 24C44.3016 29.3841 42.1601 34.5458 38.353 38.353C34.5459 42.1601 29.3841 44.3016 24 44.3077ZM12.9231 19.3846C12.9231 18.8369 13.0855 18.3015 13.3898 17.8461C13.6941 17.3907 14.1266 17.0358 14.6326 16.8262C15.1386 16.6166 15.6954 16.5617 16.2326 16.6686C16.7697 16.7754 17.2632 17.0392 17.6505 17.4265C18.0377 17.8138 18.3015 18.3072 18.4083 18.8444C18.5152 19.3815 18.4603 19.9383 18.2508 20.4444C18.0412 20.9504 17.6862 21.3829 17.2308 21.6871C16.7754 21.9914 16.24 22.1538 15.6923 22.1538C14.9579 22.1538 14.2535 21.8621 13.7342 21.3428C13.2148 20.8234 12.9231 20.1191 12.9231 19.3846ZM29.5385 19.3846C29.5385 18.8369 29.7009 18.3015 30.0052 17.8461C30.3095 17.3907 30.7419 17.0358 31.248 16.8262C31.754 16.6166 32.3108 16.5617 32.8479 16.6686C33.3851 16.7754 33.8786 17.0392 34.2658 17.4265C34.6531 17.8138 34.9169 18.3072 35.0237 18.8444C35.1306 19.3815 35.0757 19.9383 34.8661 20.4444C34.6565 20.9504 34.3016 21.3829 33.8462 21.6871C33.3908 21.9914 32.8554 22.1538 32.3077 22.1538C31.5733 22.1538 30.8689 21.8621 30.3496 21.3428C29.8302 20.8234 29.5385 20.1191 29.5385 19.3846ZM35.1923 34.1538C35.4356 34.5765 35.5018 35.0783 35.3764 35.5495C35.251 36.0208 34.9442 36.4234 34.5231 36.6692C34.2449 36.8378 33.9253 36.9257 33.6 36.9231C33.2756 36.9292 32.9557 36.8465 32.675 36.6838C32.3943 36.521 32.1635 36.2846 32.0077 36C31.1946 34.5962 30.0269 33.4308 28.6214 32.6207C27.216 31.8105 25.6222 31.3841 24 31.3841C22.3778 31.3841 20.784 31.8105 19.3786 32.6207C17.9731 33.4308 16.8054 34.5962 15.9923 36C15.8822 36.2295 15.7258 36.4338 15.533 36.6C15.3401 36.7662 15.115 36.8908 14.8717 36.9658C14.6284 37.0408 14.3723 37.0647 14.1193 37.0359C13.8664 37.0072 13.6221 36.9265 13.4018 36.7988C13.1816 36.6711 12.9901 36.4992 12.8395 36.294C12.6888 36.0888 12.5823 35.8546 12.5265 35.6062C12.4707 35.3578 12.4668 35.1006 12.5152 34.8506C12.5636 34.6007 12.6632 34.3635 12.8077 34.1538C13.9419 32.189 15.5733 30.5574 17.538 29.4229C19.5026 28.2885 21.7313 27.6913 24 27.6913C26.2687 27.6913 28.4974 28.2885 30.4621 29.4229C32.4267 30.5574 34.0582 32.189 35.1923 34.1538Z" fill="#FDAC15"/>
</svg>
