<svg width="20" height="20" viewBox="0 0 20 20" fill="none" xmlns="http://www.w3.org/2000/svg">
<path d="M13.7731 14.0543L19.769 7.7357L19.845 7.64284C19.9576 7.48098 20.0118 7.28106 19.9978 7.07979C19.9839 6.87852 19.9026 6.68939 19.769 6.54712L13.7731 0.231402L13.6905 0.155687C13.2105 -0.230028 12.5038 0.141402 12.5038 0.825688V3.86855L12.2038 3.88998C7.45322 4.29284 4.6706 7.51427 4.00661 13.3571C3.92127 14.1071 4.72393 14.5771 5.24392 14.08C7.15189 12.2543 9.12386 11.12 11.1705 10.6657C11.4985 10.5928 11.8278 10.5371 12.1598 10.4986L12.5038 10.4657V13.46L12.5105 13.5771C12.5905 14.2243 13.3225 14.5286 13.7731 14.0543ZM12.3011 5.31427L13.8371 5.20427V2.29998L18.4317 7.13998L13.8371 11.9828V8.90141L12.0292 9.0757H12.0185C9.74785 9.33713 7.60522 10.3114 5.58258 11.9357C5.97991 10.0228 6.65857 8.58427 7.55055 7.55427C8.6572 6.2757 10.2038 5.49427 12.3011 5.31427ZM3.33328 1.42855C2.44924 1.42855 1.60141 1.80482 0.976296 2.47459C0.351184 3.14437 0 4.05278 0 4.99998V16.4286C0 17.3758 0.351184 18.2842 0.976296 18.954C1.60141 19.6237 2.44924 20 3.33328 20H13.9998C14.8838 20 15.7317 19.6237 16.3568 18.954C16.9819 18.2842 17.3331 17.3758 17.3331 16.4286V15C17.3331 14.8106 17.2628 14.6289 17.1378 14.4949C17.0128 14.361 16.8432 14.2857 16.6664 14.2857C16.4896 14.2857 16.32 14.361 16.195 14.4949C16.07 14.6289 15.9998 14.8106 15.9998 15V16.4286C15.9998 16.9969 15.789 17.5419 15.414 17.9438C15.0389 18.3457 14.5302 18.5714 13.9998 18.5714H3.33328C2.80286 18.5714 2.29416 18.3457 1.91909 17.9438C1.54402 17.5419 1.33331 16.9969 1.33331 16.4286V4.99998C1.33331 4.43166 1.54402 3.88661 1.91909 3.48475C2.29416 3.08288 2.80286 2.85712 3.33328 2.85712H7.33322C7.51003 2.85712 7.6796 2.78186 7.80462 2.64791C7.92964 2.51395 7.99988 2.33227 7.99988 2.14283C7.99988 1.95339 7.92964 1.77171 7.80462 1.63776C7.6796 1.5038 7.51003 1.42855 7.33322 1.42855H3.33328Z" fill="#FDAC15"/>
</svg>
