<svg width="21" height="20" viewBox="0 0 21 20" fill="none" xmlns="http://www.w3.org/2000/svg">
<path fill-rule="evenodd" clip-rule="evenodd" d="M8.10844 13.5736C8.81522 14.0458 9.64618 14.2979 10.4962 14.2979C11.0622 14.3036 11.6237 14.1964 12.1477 13.9824C12.6718 13.7685 13.1478 13.4521 13.5481 13.0519C13.9483 12.6516 14.2647 12.1755 14.4786 11.6515C14.6926 11.1275 14.7998 10.566 14.7941 10C14.7941 9.14997 14.542 8.31901 14.0698 7.61223C13.5975 6.90545 12.9263 6.35458 12.1409 6.02928C11.3556 5.70399 10.4914 5.61887 9.65774 5.78471C8.82403 5.95054 8.05822 6.35988 7.45716 6.96094C6.85609 7.56201 6.44675 8.32782 6.28092 9.16153C6.11508 9.99524 6.2002 10.8594 6.52549 11.6447C6.85079 12.4301 7.40166 13.1013 8.10844 13.5736ZM9.38938 7.33488C9.741 7.19401 10.1175 7.12593 10.4962 7.13475C10.8749 7.12593 11.2514 7.19401 11.6031 7.33488C11.9547 7.47575 12.2741 7.68648 12.5419 7.95432C12.8097 8.22217 13.0205 8.54155 13.1613 8.89317C13.3022 9.24479 13.3703 9.62132 13.3615 10C13.3703 10.3787 13.3022 10.7552 13.1613 11.1068C13.0205 11.4585 12.8097 11.7778 12.5419 12.0457C12.2741 12.3135 11.9547 12.5243 11.6031 12.6651C11.2514 12.806 10.8749 12.8741 10.4962 12.8653C10.1175 12.8741 9.741 12.806 9.38938 12.6651C9.03776 12.5243 8.71838 12.3135 8.45053 12.0457C8.18269 11.7778 7.97196 11.4585 7.83109 11.1068C7.69022 10.7552 7.62214 10.3787 7.63096 10C7.62214 9.62132 7.69022 9.24479 7.83109 8.89317C7.97196 8.54155 8.18269 8.22217 8.45053 7.95432C8.71838 7.68648 9.03776 7.47575 9.38938 7.33488Z" fill="#FDAC15"/>
<path fill-rule="evenodd" clip-rule="evenodd" d="M18.3757 9.44844V10.5444L19.7295 11.7836C19.9794 12.0027 20.1454 12.3019 20.1989 12.6299C20.2525 12.9579 20.1904 13.2943 20.0232 13.5816L18.39 16.4468C18.2644 16.6644 18.0838 16.8451 17.8663 16.9708C17.6487 17.0966 17.402 17.1629 17.1508 17.1631C16.9951 17.1643 16.8402 17.1401 16.6923 17.0915L14.9589 16.5041C14.6559 16.7039 14.34 16.8833 14.0133 17.0414L13.648 18.8465C13.5825 19.1763 13.4031 19.4725 13.1412 19.6833C12.8793 19.8942 12.5515 20.0062 12.2154 19.9997H8.83437C8.49821 20.0062 8.17048 19.8942 7.90857 19.6833C7.64666 19.4725 7.46725 19.1763 7.40175 18.8465L7.03643 17.0414C6.71206 16.8833 6.39858 16.7038 6.09806 16.5041L4.35741 17.0915C4.20951 17.1401 4.05466 17.1643 3.89897 17.1631C3.64774 17.1629 3.401 17.0966 3.18349 16.9708C2.96599 16.8451 2.78537 16.6644 2.65975 16.4468L0.969251 13.5816C0.794396 13.2915 0.727955 12.9489 0.781719 12.6145C0.835483 12.2801 1.00598 11.9756 1.26294 11.755L2.61677 10.5516V9.4556L1.26294 8.21638C1.01303 7.99728 0.847082 7.69811 0.793503 7.3701C0.739925 7.0421 0.802054 6.70567 0.969251 6.41843L2.65975 3.55318C2.78537 3.33561 2.96599 3.15489 3.18349 3.02917C3.401 2.90344 3.64774 2.83712 3.89897 2.83686C4.0531 2.82638 4.20792 2.84089 4.35741 2.87984L6.06224 3.49587C6.36522 3.29613 6.68109 3.11666 7.00777 2.95864L7.37309 1.15353C7.4386 0.823741 7.61801 0.527499 7.87992 0.316661C8.14183 0.105822 8.46955 -0.00617906 8.80572 0.000263196H12.1581C12.4942 -0.00617906 12.822 0.105822 13.0839 0.316661C13.3458 0.527499 13.5252 0.823741 13.5907 1.15353L13.956 2.95864C14.2804 3.1167 14.5939 3.29617 14.8944 3.49587L16.635 2.9085C16.7829 2.85987 16.9378 2.83567 17.0935 2.83686C17.3447 2.83712 17.5914 2.90344 17.8089 3.02917C18.0265 3.15489 18.2071 3.33561 18.3327 3.55318L20.0232 6.41843C20.2005 6.7061 20.2705 7.04719 20.2207 7.38144C20.1709 7.7157 20.0045 8.02158 19.751 8.24503L18.3757 9.44844ZM14.6365 14.8996L17.0935 15.7305L18.784 12.8653L16.8356 11.096C16.968 10.3545 16.968 9.59538 16.8356 8.8539L18.784 7.13475L17.0935 4.26949L14.6293 5.07176C14.0522 4.59122 13.3984 4.21106 12.6953 3.94715L12.1867 1.40424H8.80572L8.29714 3.9758C7.58842 4.23243 6.93108 4.61325 6.35593 5.10042L3.89897 4.26949L2.20847 7.13475L4.15685 8.90404C4.0244 9.64553 4.0244 10.4046 4.15685 11.1461L2.20847 12.8653L3.89897 15.7305L6.36309 14.9282C6.94024 15.4088 7.59402 15.7889 8.29714 16.0529L8.80572 18.5958H12.1867L12.6953 16.0242C13.404 15.7676 14.0614 15.3868 14.6365 14.8996Z" fill="#FDAC15"/>
</svg>
