<svg width="48" height="48" viewBox="0 0 48 48" fill="none" xmlns="http://www.w3.org/2000/svg">
<path d="M12 19.125C12 19.807 12.2709 20.461 12.7532 20.9433C13.2354 21.4255 13.8894 21.6964 14.5714 21.6964C15.2534 21.6964 15.9075 21.4255 16.3897 20.9433C16.8719 20.461 17.1429 19.807 17.1429 19.125C17.1429 18.443 16.8719 17.789 16.3897 17.3067C15.9075 16.8245 15.2534 16.5536 14.5714 16.5536C13.8894 16.5536 13.2354 16.8245 12.7532 17.3067C12.2709 17.789 12 18.443 12 19.125ZM30.8571 19.125C30.8571 19.807 31.1281 20.461 31.6103 20.9433C32.0925 21.4255 32.7466 21.6964 33.4286 21.6964C34.1106 21.6964 34.7646 21.4255 35.2468 20.9433C35.7291 20.461 36 19.807 36 19.125C36 18.443 35.7291 17.789 35.2468 17.3067C34.7646 16.8245 34.1106 16.5536 33.4286 16.5536C32.7466 16.5536 32.0925 16.8245 31.6103 17.3067C31.1281 17.789 30.8571 18.443 30.8571 19.125ZM24 0C10.7464 0 0 10.7464 0 24C0 37.2536 10.7464 48 24 48C37.2536 48 48 37.2536 48 24C48 10.7464 37.2536 0 24 0ZM38.0893 38.0893C36.2571 39.9214 34.125 41.3571 31.7518 42.3643C29.3036 43.4036 26.6946 43.9286 24 43.9286C21.3054 43.9286 18.6964 43.4036 16.2429 42.3643C13.8732 41.3635 11.7208 39.9116 9.90536 38.0893C8.07321 36.2571 6.6375 34.125 5.63036 31.7518C4.59643 29.3036 4.07143 26.6946 4.07143 24C4.07143 21.3054 4.59643 18.6964 5.63571 16.2429C6.63647 13.8732 8.08841 11.7208 9.91071 9.90536C11.7429 8.07321 13.875 6.6375 16.2482 5.63036C18.6964 4.59643 21.3054 4.07143 24 4.07143C26.6946 4.07143 29.3036 4.59643 31.7571 5.63571C34.1268 6.63647 36.2792 8.08841 38.0946 9.91071C39.9268 11.7429 41.3625 13.875 42.3696 16.2482C43.4036 18.6964 43.9286 21.3054 43.9286 24C43.9286 26.6946 43.4036 29.3036 42.3643 31.7571C41.3647 34.1258 39.9126 36.2767 38.0893 38.0893ZM32.1429 25.125H29.5661C29.3411 25.125 29.1482 25.2964 29.1321 25.5214C28.9286 28.1732 26.7054 30.2679 24 30.2679C21.2946 30.2679 19.0661 28.1732 18.8679 25.5214C18.8518 25.2964 18.6589 25.125 18.4339 25.125H15.8571C15.799 25.1249 15.7415 25.1367 15.688 25.1595C15.6346 25.1824 15.5864 25.2159 15.5463 25.258C15.5062 25.3001 15.4751 25.3499 15.4548 25.4044C15.4346 25.4589 15.4257 25.5169 15.4286 25.575C15.6643 30.0911 19.4196 33.6964 24 33.6964C28.5804 33.6964 32.3357 30.0911 32.5714 25.575C32.5743 25.5169 32.5654 25.4589 32.5452 25.4044C32.5249 25.3499 32.4938 25.3001 32.4537 25.258C32.4136 25.2159 32.3654 25.1824 32.312 25.1595C32.2585 25.1367 32.201 25.1249 32.1429 25.125Z" fill="#FDAC15"/>
</svg>
