<svg width="285" height="24" viewBox="0 0 285 24" fill="none" xmlns="http://www.w3.org/2000/svg">
<rect x="141" y="7" width="127" height="10" fill="#FDAC15"/>
<circle cx="141" cy="12" r="12" fill="#FDAC15"/>
<path d="M138.664 14.2012L144.712 7.3207C144.9 7.1069 145.139 7 145.429 7C145.72 7 145.959 7.1069 146.147 7.3207C146.335 7.5345 146.429 7.80661 146.429 8.13703C146.429 8.46744 146.335 8.73955 146.147 8.95335L139.382 16.6501C139.177 16.8834 138.938 17 138.664 17C138.391 17 138.152 16.8834 137.947 16.6501L135.282 13.6181C135.094 13.4043 135 13.1322 135 12.8017C135 12.4713 135.094 12.1992 135.282 11.9854C135.47 11.7716 135.709 11.6647 135.999 11.6647C136.29 11.6647 136.529 11.7716 136.717 11.9854L138.664 14.2012Z" fill="#FFFEFD"/>
<rect x="12" y="7" width="121.356" height="10" fill="#FDAC15"/>
<ellipse cx="12" cy="12" rx="11.4667" ry="12" fill="#FDAC15"/>
<path d="M9.76812 14.2012L15.5468 7.3207C15.7263 7.1069 15.9548 7 16.2324 7C16.5099 7 16.7384 7.1069 16.918 7.3207C17.0975 7.5345 17.1873 7.80661 17.1873 8.13703C17.1873 8.46744 17.0975 8.73955 16.918 8.95335L10.4537 16.6501C10.2578 16.8834 10.0293 17 9.76812 17C9.50694 17 9.27841 16.8834 9.08252 16.6501L6.53601 13.6181C6.35644 13.4043 6.26666 13.1322 6.26666 12.8017C6.26666 12.4713 6.35644 12.1992 6.53601 11.9854C6.71557 11.7716 6.9441 11.6647 7.22161 11.6647C7.49911 11.6647 7.72764 11.7716 7.90721 11.9854L9.76812 14.2012Z" fill="#FFFEFD"/>
<circle cx="273" cy="12" r="12" fill="#D9D9D9"/>
</svg>
