<svg width="291" height="24" viewBox="0 0 291 24" fill="none" xmlns="http://www.w3.org/2000/svg">
<rect x="156" y="7" width="127" height="10" fill="#D9D9D9"/>
<circle cx="279" cy="12" r="12" fill="#D9D9D9"/>
<circle cx="152" cy="12" r="12" fill="#FDAC15"/>
<rect x="13" y="7" width="134.526" height="10" fill="#FDAC15"/>
<ellipse cx="13.0001" cy="12" rx="12.7111" ry="12" fill="#FDAC15"/>
<path d="M10.5259 14.2012L16.9316 7.3207C17.1307 7.1069 17.384 7 17.6916 7C17.9993 7 18.2526 7.1069 18.4517 7.3207C18.6507 7.5345 18.7502 7.80661 18.7502 8.13703C18.7502 8.46744 18.6507 8.73955 18.4517 8.95335L11.2859 16.6501C11.0687 16.8834 10.8154 17 10.5259 17C10.2363 17 9.98301 16.8834 9.76586 16.6501L6.94298 13.6181C6.74393 13.4043 6.64441 13.1322 6.64441 12.8017C6.64441 12.4713 6.74393 12.1992 6.94298 11.9854C7.14203 11.7716 7.39537 11.6647 7.70299 11.6647C8.01061 11.6647 8.26395 11.7716 8.463 11.9854L10.5259 14.2012Z" fill="#FFFEFD"/>
</svg>
