<svg width="284" height="24" viewBox="0 0 284 24" fill="none" xmlns="http://www.w3.org/2000/svg">
<rect x="12" y="7" width="127" height="10" fill="#FDAC15"/>
<circle cx="12" cy="12" r="12" fill="#FDAC15"/>
<path d="M9.66432 14.2012L15.7117 7.3207C15.8996 7.1069 16.1388 7 16.4292 7C16.7196 7 16.9588 7.1069 17.1467 7.3207C17.3346 7.5345 17.4286 7.80661 17.4286 8.13703C17.4286 8.46744 17.3346 8.73955 17.1467 8.95335L10.3818 16.6501C10.1768 16.8834 9.93765 17 9.66432 17C9.39099 17 9.15183 16.8834 8.94683 16.6501L6.28187 13.6181C6.09396 13.4043 6 13.1322 6 12.8017C6 12.4713 6.09396 12.1992 6.28187 11.9854C6.46978 11.7716 6.70895 11.6647 6.99936 11.6647C7.28977 11.6647 7.52893 11.7716 7.71685 11.9854L9.66432 14.2012Z" fill="#FFFEFD"/>
<rect x="141" y="7" width="127" height="10" fill="#FDAC15"/>
<circle cx="141" cy="12" r="12" fill="#FDAC15"/>
<path d="M138.664 14.2012L144.712 7.3207C144.9 7.1069 145.139 7 145.429 7C145.72 7 145.959 7.1069 146.147 7.3207C146.335 7.5345 146.429 7.80661 146.429 8.13703C146.429 8.46744 146.335 8.73955 146.147 8.95335L139.382 16.6501C139.177 16.8834 138.938 17 138.664 17C138.391 17 138.152 16.8834 137.947 16.6501L135.282 13.6181C135.094 13.4043 135 13.1322 135 12.8017C135 12.4713 135.094 12.1992 135.282 11.9854C135.47 11.7716 135.709 11.6647 135.999 11.6647C136.29 11.6647 136.529 11.7716 136.717 11.9854L138.664 14.2012Z" fill="#FFFEFD"/>
<circle cx="272" cy="12" r="12" fill="#FDAC15"/>
</svg>
