<svg width="324" height="316" viewBox="0 0 324 316" fill="none" xmlns="http://www.w3.org/2000/svg">
<g clip-path="url(#clip0_163_3156)" filter="url(#filter0_d_163_3156)">
<path d="M202.685 71.5592H186.945V205.63C186.945 207.734 186.53 209.817 185.725 211.76C184.919 213.703 183.738 215.469 182.249 216.957C180.76 218.444 178.993 219.624 177.047 220.429C175.102 221.234 173.017 221.648 170.912 221.648H50.5696V221.802C50.5696 223.905 50.9843 225.988 51.79 227.931C52.5957 229.875 53.7767 231.641 55.2656 233.128C56.7544 234.616 58.5219 235.795 60.4671 236.6C62.4123 237.405 64.4972 237.82 66.6027 237.82H202.685C204.791 237.82 206.876 237.405 208.821 236.6C210.766 235.795 212.534 234.616 214.023 233.128C215.511 231.641 216.692 229.875 217.498 227.931C218.304 225.988 218.719 223.905 218.719 221.802V87.5773C218.719 83.3291 217.029 79.2548 214.023 76.2508C211.016 73.2468 206.938 71.5592 202.685 71.5592Z" fill="#F2F2F2"/>
<path d="M277.303 284.619C277.581 284.631 277.857 284.558 278.093 284.409C278.329 284.26 278.513 284.042 278.62 283.785C278.728 283.528 278.754 283.244 278.694 282.972C278.635 282.699 278.493 282.452 278.289 282.263L278.195 281.892C278.208 281.863 278.22 281.833 278.232 281.804C278.513 281.141 278.984 280.576 279.585 280.18C280.186 279.784 280.89 279.574 281.61 279.577C282.33 279.579 283.034 279.794 283.632 280.195C284.23 280.596 284.696 281.164 284.972 281.829C286.074 284.481 287.477 287.138 287.823 289.942C287.975 291.181 287.911 292.438 287.633 293.656C290.222 288.014 291.566 281.881 291.575 275.675C291.575 274.117 291.489 272.561 291.315 271.013C291.172 269.744 290.973 268.485 290.719 267.234C289.332 260.447 286.352 254.086 282.026 248.673C279.932 247.531 278.239 245.776 277.175 243.644C276.789 242.877 276.516 242.059 276.365 241.214C276.601 241.245 277.256 237.652 277.078 237.431C277.407 236.932 277.996 236.684 278.355 236.197C280.143 233.775 282.607 234.198 283.893 237.489C286.64 238.874 286.666 241.171 284.981 243.381C283.908 244.786 283.761 246.688 282.82 248.193C282.917 248.317 283.018 248.437 283.114 248.561C284.884 250.834 286.426 253.275 287.719 255.849C287.405 252.965 287.78 250.049 288.814 247.338C289.862 244.812 291.826 242.685 293.556 240.501C294.014 239.915 294.635 239.477 295.342 239.243C296.048 239.009 296.809 238.99 297.526 239.187C298.244 239.385 298.887 239.791 299.373 240.353C299.86 240.916 300.169 241.61 300.261 242.348C300.265 242.38 300.268 242.412 300.272 242.445C300.015 242.589 299.763 242.743 299.517 242.906C299.208 243.112 298.968 243.407 298.83 243.752C298.691 244.096 298.66 244.475 298.74 244.838C298.821 245.2 299.009 245.53 299.28 245.784C299.552 246.038 299.894 246.204 300.261 246.261L300.299 246.267C300.207 247.192 300.045 248.109 299.815 249.009C302.034 257.584 297.243 260.707 290.402 260.847C290.251 260.924 290.103 261.002 289.952 261.075C291.251 264.753 292.066 268.584 292.376 272.472C292.552 274.765 292.542 277.069 292.345 279.361L292.357 279.28C292.853 276.732 294.213 274.432 296.21 272.77C299.175 270.336 303.363 269.44 306.562 267.484C306.902 267.266 307.297 267.15 307.701 267.149C308.105 267.148 308.501 267.262 308.842 267.479C309.183 267.695 309.455 268.005 309.626 268.37C309.797 268.736 309.859 269.143 309.806 269.543L309.793 269.628C309.316 269.822 308.852 270.046 308.403 270.298C308.146 270.442 307.894 270.596 307.648 270.759C307.339 270.965 307.1 271.26 306.961 271.605C306.823 271.949 306.791 272.328 306.872 272.691C306.952 273.053 307.141 273.383 307.412 273.637C307.683 273.891 308.025 274.057 308.392 274.114L308.43 274.12C308.457 274.124 308.48 274.127 308.507 274.131C307.693 276.075 306.549 277.864 305.127 279.42C303.74 286.905 297.78 287.615 291.404 285.435H291.401C290.701 288.472 289.688 291.428 288.376 294.255H277.573C277.535 294.135 277.5 294.011 277.465 293.891C278.465 293.954 279.469 293.895 280.454 293.714C279.653 292.731 278.851 291.741 278.05 290.758C278.032 290.74 278.015 290.72 277.999 290.7C277.593 290.197 277.182 289.698 276.776 289.195L276.775 289.195C276.754 287.653 276.931 286.115 277.303 284.619Z" fill="#F2F2F2"/>
<path d="M158.315 53.3218C158.709 53.9188 159.229 54.4231 159.837 54.7998C160.446 55.1765 161.129 55.4166 161.84 55.5035C162.551 55.5904 163.272 55.5221 163.953 55.3032C164.635 55.0843 165.261 54.72 165.788 54.2357L188.248 64.3594L192.578 58.8412L165.814 47.0119C164.932 46.1865 163.778 45.713 162.569 45.6811C161.361 45.6492 160.183 46.0612 159.259 46.839C158.335 47.6168 157.728 48.7063 157.554 49.9011C157.38 51.096 157.651 52.3131 158.315 53.3218Z" fill="#A0616A"/>
<path d="M254.705 59.6345L256.933 72.246C257.036 72.8344 257.016 73.438 256.873 74.018C256.729 74.598 256.466 75.1417 256.1 75.6141C255.734 76.0865 255.273 76.4773 254.747 76.7612C254.221 77.0451 253.641 77.216 253.045 77.2628L215.193 80.2366L170.7 60.3425L176.014 50.264L214.638 62.4837L254.705 59.6345Z" fill="#FDAC15"/>
<path d="M166.116 50.5963H30.0331C21.1783 50.5963 14 57.7678 14 66.6144V200.839C14 209.685 21.1783 216.857 30.0331 216.857H166.116C174.971 216.857 182.149 209.685 182.149 200.839V66.6144C182.149 57.7678 174.971 50.5963 166.116 50.5963Z" fill="#F2F2F2"/>
<path d="M30.0333 53.8903C28.3608 53.8903 26.7046 54.2194 25.1594 54.8589C23.6142 55.4983 22.2103 56.4356 21.0276 57.6171C19.845 58.7986 18.9069 60.2013 18.2668 61.7451C17.6268 63.2888 17.2974 64.9434 17.2974 66.6143V200.839C17.2974 204.213 18.6392 207.45 21.0276 209.836C23.4161 212.222 26.6555 213.563 30.0333 213.563H116.885C125.022 213.563 133.08 211.961 140.598 208.85C148.117 205.739 154.948 201.179 160.702 195.43C166.456 189.681 171.021 182.856 174.135 175.345C177.249 167.834 178.852 159.783 178.852 151.653V66.6143C178.852 64.9434 178.522 63.2888 177.882 61.7451C177.242 60.2013 176.304 58.7986 175.121 57.6171C173.939 56.4356 172.535 55.4983 170.99 54.8589C169.444 54.2194 167.788 53.8903 166.116 53.8903H30.0333Z" fill="#FFFEFD"/>
<path d="M136.116 94.6251H59.7356C59.0348 94.6251 58.3626 94.347 57.867 93.8519C57.3714 93.3567 57.093 92.6852 57.093 91.985C57.093 91.2848 57.3714 90.6133 57.867 90.1181C58.3626 89.623 59.0348 89.3449 59.7356 89.3449H136.116C136.817 89.3449 137.489 89.623 137.985 90.1181C138.48 90.6133 138.759 91.2848 138.759 91.985C138.759 92.6852 138.48 93.3567 137.985 93.8519C137.489 94.347 136.817 94.6251 136.116 94.6251Z" fill="#F2F2F2"/>
<path d="M136.116 150.926H59.7356C59.0348 150.926 58.3626 150.648 57.867 150.152C57.3714 149.657 57.093 148.986 57.093 148.286C57.093 147.585 57.3714 146.914 57.867 146.419C58.3626 145.924 59.0348 145.645 59.7356 145.645H136.116C136.817 145.645 137.489 145.924 137.985 146.419C138.48 146.914 138.759 147.585 138.759 148.286C138.759 148.986 138.48 149.657 137.985 150.152C137.489 150.648 136.817 150.926 136.116 150.926Z" fill="#F2F2F2"/>
<path d="M167.132 122.794H28.719C28.0182 122.794 27.346 122.516 26.8504 122.021C26.3548 121.525 26.0764 120.854 26.0764 120.154C26.0764 119.453 26.3548 118.782 26.8504 118.287C27.346 117.792 28.0182 117.514 28.719 117.514H167.132C167.833 117.514 168.505 117.792 169.001 118.287C169.496 118.782 169.775 119.453 169.775 120.154C169.775 120.854 169.496 121.525 169.001 122.021C168.505 122.516 167.833 122.794 167.132 122.794Z" fill="#F2F2F2"/>
<path d="M249.923 115.221L236.134 144.569L289.176 139.202L278.104 111.028L249.923 115.221Z" fill="#A0616A"/>
<path d="M262.254 283.903L257.225 283.86L254.999 264.029L262.421 264.091L262.254 283.903Z" fill="#A0616A"/>
<path d="M246.146 291.892C246.141 292.488 246.373 293.061 246.791 293.486C247.209 293.91 247.779 294.152 248.375 294.158L258.374 294.241L260.124 290.697L260.767 294.259L264.54 294.294L263.587 281.586L262.274 281.499L256.921 281.13L255.193 281.015L255.163 284.61L247.131 290.053C246.83 290.257 246.583 290.531 246.411 290.851C246.24 291.172 246.149 291.529 246.146 291.892Z" fill="#323232"/>
<path d="M206.599 283.925L201.805 282.408L205.509 262.799L212.586 265.037L206.599 283.925Z" fill="#A0616A"/>
<path d="M188.852 286.834C188.673 287.402 188.726 288.018 189.001 288.546C189.275 289.075 189.748 289.473 190.317 289.654L199.85 292.669L202.565 289.794L202.132 293.389L205.728 294.529L208.555 282.102L207.326 281.634L202.317 279.71L200.699 279.092L199.613 282.52L190.335 285.365C189.987 285.472 189.671 285.661 189.412 285.917C189.154 286.173 188.962 286.487 188.852 286.834Z" fill="#323232"/>
<path d="M286.76 130.949L238.532 139.778C238.532 139.778 230.797 145.559 232.866 147.629C234.935 149.699 235.256 149.379 233.897 150.737C232.537 152.095 229.598 153.911 229.569 155.099C229.54 156.288 207.958 209.593 207.958 209.593C207.958 209.593 210.356 208.396 208.557 210.192C206.759 211.989 206.759 213.474 206.759 213.474L198.365 270.087L211.996 270.888L225.343 219.276L255.114 171.058C255.114 171.058 258.068 214.056 258.192 216.916C258.316 219.775 260.114 216.182 258.316 219.775C256.517 223.369 255.318 220.973 256.517 223.369C257.716 225.765 252.198 274.539 252.198 274.539H264.639L291.323 173.443C291.323 173.443 300.817 144.541 286.76 130.949Z" fill="#323232"/>
<path d="M272.553 50.0846L253.234 48.0791L248.229 54.5712L242.398 57.6739C239.93 58.9869 237.894 60.9822 236.531 63.4212C235.169 65.8601 234.538 68.6395 234.715 71.427L241.53 111.028C241.53 111.028 235.774 123.977 239.731 127.2C243.688 130.423 236.672 138.404 245.127 134.387C253.582 130.37 290.089 134.986 290.089 134.986L282.296 112.825L288.118 91.0492L288.759 72.7903C288.878 69.3783 287.865 66.0226 285.876 63.2463C283.887 60.4699 281.035 58.4289 277.764 57.4413L276.95 57.1956L272.553 50.0846Z" fill="#FDAC15"/>
<path d="M299.149 35.2881C299.276 40.7283 297.241 45.996 294.318 50.6228C293.449 47.9217 291.887 45.4634 290.259 43.1199C291.08 48.1895 290.205 53.3881 287.771 57.9111C287.685 57.9725 287.596 58.0294 287.505 58.0818C285.122 59.5139 282.101 60.0939 279.523 59.0596C284.849 53.3237 285.527 43.8202 281.061 37.3865C279.797 35.5609 278.162 33.9463 277.379 31.8688C276.143 28.5539 277.331 24.9042 278.081 21.4481C278.782 18.2315 278.905 14.4038 276.745 12.0464C276.975 11.717 277.29 11.4548 277.655 11.2866C278.021 11.1185 278.424 11.0504 278.825 11.0895C280.157 11.2774 281.126 12.4339 281.744 13.625C282.361 14.8161 282.768 16.1362 283.629 17.165C285.222 19.0906 287.935 19.5458 290.222 20.5606C295.76 23.0251 299.017 29.2347 299.149 35.2881Z" fill="#323232"/>
<path d="M156.472 294.287C156.472 294.381 156.49 294.474 156.526 294.56C156.562 294.647 156.614 294.726 156.681 294.792C156.747 294.858 156.826 294.911 156.912 294.946C156.999 294.982 157.092 295 157.186 295H309.033C309.223 295 309.404 294.925 309.538 294.791C309.672 294.658 309.747 294.476 309.747 294.287C309.747 294.098 309.672 293.917 309.538 293.783C309.404 293.65 309.223 293.575 309.033 293.575H157.186C157.092 293.574 156.999 293.592 156.912 293.628C156.826 293.664 156.747 293.716 156.681 293.783C156.614 293.849 156.562 293.928 156.526 294.014C156.49 294.101 156.472 294.194 156.472 294.287Z" fill="#CCCCCC"/>
<path d="M300.345 161.376C303.325 161.376 305.74 158.962 305.74 155.985C305.74 153.008 303.325 150.595 300.345 150.595C297.365 150.595 294.949 153.008 294.949 155.985C294.949 158.962 297.365 161.376 300.345 161.376Z" fill="#FDAC15"/>
<path d="M252.534 32.1776C252.85 31.071 250.669 37.8354 251.721 37.9576C256.515 38.507 263.096 41.3674 266.435 42.7019C266.586 42.6844 266.736 42.667 266.882 42.6452C267.24 42.6059 267.589 42.5492 267.934 42.4838C275.709 41.0142 278.699 29.0824 278.699 28.9734C278.699 28.437 277.41 13.7046 275.38 13.4866C274.847 13.4288 274.311 13.3997 273.775 13.3994H268.738C267.695 13.175 266.639 13.022 265.576 12.9415H265.567C255.426 12.1696 247.43 18.3447 248.178 25.8586C248.182 25.8673 248.191 25.8761 248.195 25.8848C248.412 26.2075 248.602 26.5128 248.77 26.805C248.934 27.0797 249.071 27.3413 249.19 27.5899C250.115 29.5087 247.739 31.9232 249.314 32.3739C251.41 32.9733 243.803 52.6742 252.097 52.6742C248.063 53.8201 251.661 35.2303 252.534 32.1776Z" fill="#323232"/>
<path d="M261.586 43.7373C268.173 43.7373 273.512 38.4027 273.512 31.8222C273.512 25.2417 268.173 19.9071 261.586 19.9071C254.999 19.9071 249.66 25.2417 249.66 31.8222C249.66 38.4027 254.999 43.7373 261.586 43.7373Z" fill="#A0616A"/>
<path d="M248.178 26.5084C248.377 26.613 248.571 26.709 248.77 26.8049C248.978 26.9052 249.186 27.0055 249.394 27.0971C253.387 28.9069 256.638 29.1075 258.61 26.5084C258.663 25.1408 258.971 23.795 259.517 22.5399C259.42 23.9425 259.791 25.3376 260.57 26.5084H264.541C268.632 29.2209 270.732 29.5043 267.893 38.4094C267.102 40.8908 263.954 55.3299 265.192 57.4712C265.55 57.4319 269.361 41.6166 269.706 41.5512C277.481 40.0816 282.421 27.2846 281.789 26.5607C281.792 24.5021 281.318 22.4707 280.404 20.6255C279.249 18.2877 277.447 16.3294 275.212 14.9824C273.88 14.3371 272.492 13.816 271.064 13.4255C271.029 13.4168 270.998 13.4081 270.962 13.3993C270.525 13.2816 270.078 13.1726 269.631 13.081C268.708 12.8863 267.775 12.7451 266.836 12.658C266.77 12.6536 266.704 12.6492 266.642 12.6492C266.267 12.6501 265.899 12.751 265.576 12.9415C265.571 12.9415 265.571 12.9458 265.567 12.9458C265.336 13.0805 265.135 13.2599 264.974 13.4735C264.692 13.8328 264.539 14.2769 264.541 14.7338H260.118C259.955 14.7338 259.791 14.7381 259.628 14.7468C256.676 14.8476 253.868 16.0452 251.754 18.1052C249.639 20.1652 248.37 22.9394 248.195 25.8848C248.182 26.0941 248.178 26.299 248.178 26.5084Z" fill="#323232"/>
<path d="M274.254 22.6994C278.593 22.6994 282.111 19.185 282.111 14.8497C282.111 10.5144 278.593 7 274.254 7C269.914 7 266.397 10.5144 266.397 14.8497C266.397 19.185 269.914 22.6994 274.254 22.6994Z" fill="#323232"/>
<path d="M300.406 158.208C300.789 157.604 301.037 156.924 301.131 156.215C301.226 155.506 301.165 154.785 300.953 154.101C300.741 153.418 300.383 152.789 299.904 152.257C299.425 151.726 298.836 151.305 298.178 151.023L298.216 126.406L291.404 124.721L291.571 153.96C291.179 155.102 291.22 156.348 291.686 157.462C292.152 158.576 293.011 159.481 294.1 160.004C295.189 160.528 296.432 160.634 297.594 160.303C298.757 159.972 299.757 159.227 300.406 158.208Z" fill="#A0616A"/>
<path d="M266.668 67.7789L277.27 60.5806C277.765 60.2447 278.324 60.016 278.912 59.9089C279.501 59.8019 280.105 59.8189 280.686 59.9589C281.268 60.099 281.813 60.3589 282.288 60.722C282.763 61.0852 283.157 61.5435 283.444 62.0676L301.671 95.344L301.74 144.044L290.361 143.332L285.689 103.125L266.668 67.7789Z" fill="#FDAC15"/>
<path d="M185.245 178.224H71.9392C69.4748 178.224 67.1112 179.202 65.3686 180.943C63.626 182.684 62.647 185.045 62.647 187.508C62.647 189.97 63.626 192.331 65.3686 194.072C67.1112 195.813 69.4748 196.791 71.9392 196.791H185.245C187.71 196.791 190.073 195.813 191.816 194.072C193.558 192.331 194.537 189.97 194.537 187.508C194.537 185.045 193.558 182.684 191.816 180.943C190.073 179.202 187.71 178.224 185.245 178.224Z" fill="#FFFEFD"/>
<path d="M185.245 197.39H71.9391C69.3157 197.39 66.7997 196.349 64.9446 194.496C63.0895 192.642 62.0474 190.129 62.0474 187.508C62.0474 184.887 63.0895 182.373 64.9446 180.52C66.7997 178.666 69.3157 177.625 71.9391 177.625H185.245C187.868 177.625 190.384 178.666 192.24 180.52C194.095 182.373 195.137 184.887 195.137 187.508C195.137 190.129 194.095 192.642 192.24 194.496C190.384 196.349 187.868 197.39 185.245 197.39ZM71.9391 178.823C69.6337 178.823 67.4226 179.738 65.7924 181.367C64.1622 182.995 63.2464 185.204 63.2464 187.508C63.2464 189.811 64.1622 192.02 65.7924 193.649C67.4226 195.277 69.6337 196.192 71.9391 196.192H185.245C187.55 196.192 189.761 195.277 191.392 193.649C193.022 192.02 193.938 189.811 193.938 187.508C193.938 185.204 193.022 182.995 191.392 181.367C189.761 179.738 187.55 178.823 185.245 178.823H71.9391Z" fill="#FDAC15"/>
<path d="M191.926 218.738H141.924C141.223 218.738 140.551 218.46 140.055 217.965C139.56 217.47 139.281 216.798 139.281 216.098C139.281 215.398 139.56 214.726 140.055 214.231C140.551 213.736 141.223 213.458 141.924 213.458H191.926C192.627 213.458 193.299 213.736 193.795 214.231C194.29 214.726 194.569 215.398 194.569 216.098C194.569 216.798 194.29 217.47 193.795 217.965C193.299 218.46 192.627 218.738 191.926 218.738Z" fill="#FDAC15"/>
</g>
<defs>
<filter id="filter0_d_163_3156" x="0.0785494" y="0.0392747" width="323.674" height="315.843" filterUnits="userSpaceOnUse" color-interpolation-filters="sRGB">
<feFlood flood-opacity="0" result="BackgroundImageFix"/>
<feColorMatrix in="SourceAlpha" type="matrix" values="0 0 0 0 0 0 0 0 0 0 0 0 0 0 0 0 0 0 127 0" result="hardAlpha"/>
<feOffset dy="6.96073"/>
<feGaussianBlur stdDeviation="6.96073"/>
<feComposite in2="hardAlpha" operator="out"/>
<feColorMatrix type="matrix" values="0 0 0 0 0 0 0 0 0 0 0 0 0 0 0 0 0 0 0.08 0"/>
<feBlend mode="normal" in2="BackgroundImageFix" result="effect1_dropShadow_163_3156"/>
<feBlend mode="normal" in="SourceGraphic" in2="effect1_dropShadow_163_3156" result="shape"/>
</filter>
<clipPath id="clip0_163_3156">
<rect width="295.831" height="288" fill="white" transform="translate(14 7)"/>
</clipPath>
</defs>
</svg>
