<svg width="350" height="289" viewBox="0 0 350 289" fill="none" xmlns="http://www.w3.org/2000/svg">
<path d="M136.882 27.7797C132.258 35.746 140.965 49.1687 132.19 51.956L132.913 51.233C138.21 44.7172 127.138 30.9262 132.435 24.4104C133.258 23.4546 133.965 22.4044 134.54 21.2819" fill="#323232"/>
<path d="M180.189 144.651C180.341 143.854 180.316 143.033 180.116 142.247C179.916 141.46 179.546 140.727 179.032 140.099C178.518 139.471 177.873 138.963 177.142 138.612C176.41 138.26 175.611 138.073 174.799 138.064L163.369 104.854L157.042 112.919L169.127 143.949C169.202 145.313 169.775 146.603 170.737 147.573C171.699 148.543 172.983 149.127 174.346 149.213C175.71 149.3 177.058 148.883 178.135 148.042C179.211 147.201 179.942 145.995 180.189 144.651Z" fill="#A0616A"/>
<path d="M129.944 64.4713C129.944 64.4713 129.588 52.45 140.338 59.3365C151.088 66.2231 174.493 130.733 174.493 130.733L162.846 137.034L136.404 78.0007L129.944 64.4713Z" fill="#FDAC15"/>
<path d="M161.659 270.508L156.291 272.802L144.888 253.189L152.811 249.803L161.659 270.508Z" fill="#A0616A"/>
<path d="M168.466 278.597L164.617 280.242L162.376 276.902L162.17 281.288L151.96 285.651C151.47 285.86 150.927 285.907 150.409 285.786C149.891 285.664 149.425 285.38 149.08 284.975C148.734 284.57 148.528 284.065 148.49 283.535C148.451 283.004 148.584 282.475 148.868 282.025L154.615 272.91L153.045 269.235L161.839 266.083L168.466 278.597Z" fill="#323232"/>
<path d="M77.5111 277.161L71.6809 276.876L70.0049 254.251L78.6106 254.672L77.5111 277.161Z" fill="#A0616A"/>
<path d="M80.0949 287.413L75.9136 287.209L75.3602 283.225L73.2558 287.079L62.1661 286.537C61.6346 286.511 61.1252 286.316 60.7124 285.98C60.2996 285.644 60.005 285.185 59.8717 284.669C59.7383 284.154 59.7731 283.61 59.971 283.116C60.1689 282.622 60.5195 282.204 60.9717 281.923L70.1265 276.24L70.3216 272.249L79.6092 273.26L80.0949 287.413Z" fill="#323232"/>
<path d="M228.147 273.556C228.533 273.57 228.914 273.465 229.239 273.255C229.563 273.045 229.815 272.741 229.961 272.383C230.107 272.025 230.139 271.631 230.053 271.254C229.967 270.877 229.768 270.536 229.481 270.276C229.432 270.088 229.397 269.952 229.347 269.764C229.708 268.822 230.341 268.009 231.167 267.429C231.992 266.85 232.972 266.53 233.981 266.511C234.989 266.492 235.98 266.774 236.827 267.322C237.674 267.87 238.338 268.658 238.734 269.586C241.017 274.793 243.96 280.178 242.577 285.95C251.882 265.733 248.414 240.728 234.216 223.65C230.316 221.55 227.135 217.783 226.275 213.383C228.201 214.015 230.58 212.43 229.117 210.422C228.484 209.655 227.845 208.894 227.212 208.127C234.431 200.29 243.237 212.415 235.309 222.974C237.966 226.242 240.275 229.778 242.197 233.525C241.723 229.531 242.205 225.482 243.601 221.71C245.02 218.193 247.713 215.218 250.081 212.167C252.96 208.45 258.973 210.095 259.409 214.773C256.729 215.682 256.416 219.57 259.497 220.072C258.775 228.79 253.161 236.848 245.36 240.743C248.331 248.836 249.544 257.469 248.916 266.068C250.204 256.013 260.959 253.474 268.455 249.411C268.932 249.099 269.489 248.933 270.058 248.932C270.628 248.931 271.186 249.096 271.663 249.407C272.141 249.717 272.517 250.16 272.747 250.681C272.978 251.202 273.051 251.779 272.959 252.341C271.923 252.774 270.933 253.308 270.003 253.937C269.567 254.236 269.234 254.663 269.051 255.158C268.867 255.654 268.841 256.194 268.976 256.705C269.111 257.216 269.401 257.672 269.806 258.012C270.211 258.352 270.711 258.558 271.237 258.602C267.53 268.037 257.772 274.441 247.688 274.502C246.759 278.722 245.394 282.834 243.615 286.772L228.649 286.915C228.594 286.749 228.544 286.578 228.494 286.412C229.88 286.486 231.27 286.39 232.633 286.126C228.926 281.821 226.071 279.634 228.147 273.556Z" fill="#F2F2F2"/>
<path d="M92.24 130.093C92.24 130.093 80.3834 162.405 80.1918 166.021C80.0002 169.637 76.6188 215.363 73.7829 218.02C70.9471 220.676 62.277 261.867 69.0232 265.089C75.7693 268.31 97.053 262.973 97.053 262.973L104.457 214.317L106.972 177.041C106.972 177.041 114.63 264.82 128.518 264.562C142.406 264.304 159.33 259.015 159.33 259.015L139.891 205.856C139.891 205.856 140.166 142.921 135.66 130.228C131.154 117.535 92.24 130.093 92.24 130.093Z" fill="#323232"/>
<path d="M127.422 46.8441L111.544 48.2985L108.986 56.151C108.986 56.151 95.6972 63.4488 98.6396 66.7643C101.582 70.0797 97.9817 92.4228 97.9817 92.4228L98.7949 110.559C98.7949 110.559 97.9213 123.124 95.3072 126.019C92.693 128.914 85.8538 136.014 90.6862 132.617C107.63 120.708 137.247 130.757 137.247 130.757L133.016 104.843C133.016 104.843 142.626 62.4145 138.833 58.8313C135.041 55.2481 131.463 54.7952 131.463 54.7952L127.422 46.8441Z" fill="#FDAC15"/>
<path d="M43.9865 129.044C44.7842 128.896 45.5397 128.574 46.1997 128.102C46.8597 127.63 47.4082 127.019 47.8065 126.312C48.2048 125.605 48.4432 124.819 48.5049 124.01C48.5667 123.201 48.4503 122.388 48.164 121.629L74.9454 98.9075L65.1325 95.9453L40.619 118.485C39.3754 119.05 38.3824 120.052 37.8283 121.301C37.2742 122.55 37.1974 123.959 37.6124 125.26C38.0275 126.562 38.9056 127.666 40.0804 128.363C41.2552 129.061 42.645 129.303 43.9865 129.044Z" fill="#A0616A"/>
<path d="M112.001 69.6119C112.001 69.6119 117.278 58.8047 104.646 60.6508C92.0134 62.4969 44.1094 111.635 44.1094 111.635L52.1262 122.175L100.541 79.278L112.001 69.6119Z" fill="#FDAC15"/>
<path d="M91.4299 51.2807L41.3452 115.446C40.4788 116.559 40.0891 117.971 40.2617 119.371C40.4343 120.772 41.155 122.047 42.2659 122.917C53.8969 151.157 88.6936 172.099 129.627 191.107C130.74 191.975 132.152 192.365 133.553 192.192C134.954 192.02 136.229 191.298 137.098 190.187L187.183 126.022C188.05 124.908 188.44 123.496 188.268 122.096C188.095 120.695 187.374 119.42 186.262 118.551C151.911 99.1541 122.387 76.6814 98.901 50.3599C97.7873 49.4935 96.3756 49.1039 94.9752 49.2765C93.5748 49.4491 92.2999 50.1698 91.4299 51.2807Z" fill="#F2F2F2"/>
<path d="M183.668 124.562L168.422 144.093C159.11 155.952 145.482 163.644 130.517 165.488C115.552 167.332 100.465 163.179 88.5517 153.936L45.8274 120.587C45.1945 120.093 44.7835 119.368 44.6845 118.571C44.5855 117.774 44.8067 116.971 45.2995 116.337L93.6965 54.3339C94.1919 53.7019 94.9178 53.2923 95.7148 53.1948C96.5119 53.0973 97.3151 53.32 97.9482 53.814C119.56 81.7218 148.49 103.439 183.144 120.315C183.776 120.809 184.186 121.534 184.284 122.33C184.382 123.126 184.16 123.929 183.668 124.562Z" fill="#FFFEFD"/>
<path d="M90.4307 86.3086L80.5021 99.0284C80.2386 99.3653 79.8522 99.5839 79.4277 99.636C79.0032 99.6881 78.5753 99.5696 78.2382 99.3064C77.901 99.0432 77.6821 98.657 77.6296 98.2325C77.5771 97.8081 77.6953 97.3801 77.9582 97.0427L87.8867 84.3229C88.0171 84.1557 88.179 84.0157 88.3635 83.9111C88.5479 83.8065 88.7511 83.7393 88.9615 83.7133C89.1719 83.6872 89.3854 83.7029 89.5898 83.7594C89.7941 83.816 89.9853 83.9122 90.1525 84.0427C90.3196 84.1731 90.4594 84.3352 90.5638 84.5198C90.6683 84.7043 90.7353 84.9076 90.7612 85.118C90.787 85.3284 90.7711 85.5419 90.7144 85.7462C90.6577 85.9505 90.5613 86.1416 90.4307 86.3086Z" fill="#F2F2F2"/>
<path d="M109.054 76.8734L87.2498 104.807C87.1194 104.974 86.9574 105.114 86.7731 105.218C86.5887 105.323 86.3855 105.39 86.1752 105.416C85.9649 105.442 85.7516 105.426 85.5473 105.369C85.3431 105.313 85.152 105.217 84.985 105.086C84.818 104.956 84.6782 104.794 84.5738 104.609C84.4694 104.425 84.4023 104.222 84.3764 104.012C84.3505 103.801 84.3662 103.588 84.4228 103.384C84.4793 103.179 84.5755 102.988 84.7059 102.821L106.51 74.8876C106.64 74.7202 106.802 74.5801 106.987 74.4753C107.171 74.3706 107.374 74.3032 107.585 74.2771C107.795 74.2509 108.009 74.2666 108.213 74.3231C108.418 74.3796 108.609 74.4759 108.776 74.6064C108.944 74.7369 109.083 74.8991 109.188 75.0838C109.292 75.2684 109.359 75.4718 109.385 75.6824C109.411 75.8929 109.395 76.1065 109.338 76.3108C109.281 76.5152 109.185 76.7064 109.054 76.8734Z" fill="#F2F2F2"/>
<path d="M71.8665 123.466C77.7362 123.466 82.4946 118.708 82.4946 112.838C82.4946 106.969 77.7362 102.21 71.8665 102.21C65.9969 102.21 61.2385 106.969 61.2385 112.838C61.2385 118.708 65.9969 123.466 71.8665 123.466Z" fill="#FDAC15"/>
<path d="M110.211 98.9504L83.4317 133.259C83.1523 133.543 82.7779 133.715 82.3799 133.741C81.9819 133.767 81.5881 133.646 81.2737 133.401C80.9593 133.155 80.7462 132.803 80.675 132.41C80.6038 132.018 80.6796 131.613 80.8878 131.273L107.667 96.9647C107.947 96.6801 108.321 96.5083 108.719 96.482C109.117 96.4558 109.511 96.5769 109.825 96.8223C110.14 97.0678 110.353 97.4203 110.424 97.8128C110.495 98.2052 110.42 98.6102 110.211 98.9504Z" fill="#F2F2F2"/>
<path d="M127.584 91.1173L90.2062 139.003C89.9267 139.288 89.5523 139.459 89.1543 139.486C88.7563 139.512 88.3625 139.391 88.0481 139.145C87.7337 138.9 87.5206 138.547 87.4494 138.155C87.3782 137.762 87.454 137.358 87.6622 137.017L125.04 89.1315C125.319 88.847 125.694 88.6752 126.092 88.6489C126.49 88.6227 126.884 88.7438 127.198 88.9892C127.513 89.2347 127.726 89.5872 127.797 89.9797C127.868 90.3721 127.792 90.7771 127.584 91.1173Z" fill="#F2F2F2"/>
<path d="M127.454 112.409L100.675 146.718C100.395 147.002 100.021 147.174 99.6228 147.2C99.2248 147.226 98.831 147.105 98.5166 146.86C98.2022 146.614 97.9891 146.262 97.9179 145.869C97.8467 145.477 97.9225 145.072 98.1307 144.732L124.91 110.424C125.19 110.139 125.564 109.967 125.962 109.941C126.36 109.915 126.754 110.036 127.068 110.281C127.383 110.527 127.596 110.879 127.667 111.272C127.738 111.664 127.663 112.069 127.454 112.409Z" fill="#F2F2F2"/>
<path d="M162.888 116.64L136.109 150.948C135.829 151.233 135.455 151.405 135.057 151.431C134.659 151.457 134.265 151.336 133.95 151.091C133.636 150.845 133.423 150.493 133.352 150.1C133.281 149.708 133.356 149.303 133.565 148.963L160.344 114.655C160.624 114.37 160.998 114.198 161.396 114.172C161.794 114.146 162.188 114.267 162.502 114.512C162.817 114.758 163.03 115.11 163.101 115.503C163.172 115.895 163.096 116.3 162.888 116.64Z" fill="#FDAC15"/>
<path d="M144.827 104.576L107.449 152.462C107.169 152.747 106.795 152.919 106.397 152.945C105.999 152.971 105.605 152.85 105.291 152.604C104.976 152.359 104.763 152.006 104.692 151.614C104.621 151.222 104.697 150.817 104.905 150.476L142.283 102.591C142.562 102.306 142.937 102.134 143.335 102.108C143.733 102.082 144.126 102.203 144.441 102.448C144.755 102.694 144.968 103.046 145.039 103.439C145.111 103.831 145.035 104.236 144.827 104.576Z" fill="#F2F2F2"/>
<path d="M100.801 26.5721C100.8 29.1538 101.433 31.6963 102.644 33.9764C103.855 36.2565 105.607 38.2044 107.747 39.6492C109.886 41.094 112.348 41.9914 114.915 42.2628C117.483 42.5342 120.078 42.1712 122.472 41.2056C124.866 40.2401 126.987 38.7015 128.648 36.725C130.309 34.7485 131.459 32.3945 131.998 29.8696C132.537 27.3447 132.448 24.7262 131.738 22.2438C131.029 19.7615 129.721 17.4912 127.929 15.6324L127.854 15.5568C127.727 15.4242 127.601 15.2918 127.469 15.1655C127.468 15.1656 127.467 15.1654 127.466 15.1651C127.466 15.1648 127.465 15.1643 127.464 15.1637C127.464 15.1631 127.463 15.1624 127.463 15.1617C127.463 15.1609 127.462 15.1601 127.462 15.1592C127.298 15.0078 127.134 14.8564 126.964 14.7113C124.685 12.7132 121.878 11.4143 118.88 10.9701C115.882 10.5259 112.819 10.9552 110.059 12.2067C107.298 13.4581 104.957 15.4787 103.315 18.0264C101.673 20.5742 100.8 23.5411 100.801 26.5721Z" fill="#323232"/>
<path d="M120.459 43.447C127.763 43.447 133.685 37.5257 133.685 30.2213C133.685 22.917 127.763 16.9956 120.459 16.9956C113.155 16.9956 107.233 22.917 107.233 30.2213C107.233 37.5257 113.155 43.447 120.459 43.447Z" fill="#A0616A"/>
<path d="M106.36 33.7459C105.067 27.9201 106.935 21.3932 111.009 17.504C113.058 15.5865 115.607 14.286 118.362 13.752C121.117 13.218 123.967 13.4721 126.584 14.4852C126.916 14.6195 127.249 14.7664 127.575 14.9198L127.727 14.9914V15.0136C127.756 15.034 127.786 15.0554 127.815 15.0771C127.877 15.1349 127.952 15.1763 128.034 15.1977C129.182 15.1676 130.324 15.3806 131.384 15.8226C132.445 16.2646 133.399 16.9256 134.187 17.7625C136.236 19.9866 137.202 23.581 136.906 27.8834L136.896 28.018L136.782 28.0895C135.23 29.073 133.619 29.9609 131.959 30.7483C126.153 33.4784 120.853 33.9842 115.758 32.2928L115.665 32.2618L113.527 28.6783C113.088 31.1499 113.322 39.348 110.803 39.7921L106.414 33.993L106.36 33.7459Z" fill="#323232"/>
<path d="M78.5185 45.2614C83.0192 42.9384 77.2309 34.5073 78.394 29.5778C79.5571 24.6484 87.9331 23.0629 88.4667 18.0263C89.0003 12.9896 90.2555 7.79485 93.5791 3.97301C95.7029 1.53085 98.8322 -0.272033 102.054 0.0338625C103.144 0.137358 104.199 0.474586 105.147 1.02258C106.095 1.57057 106.914 2.31646 107.548 3.20943C108.182 4.1024 108.616 5.12148 108.82 6.19726C109.025 7.27304 108.995 8.38025 108.733 9.44347C109.65 8.14364 112.024 8.42536 112.612 9.90386C113.134 11.2182 111.98 12.8103 110.622 12.9266C108.845 15.1214 106.809 17.4507 104.025 17.8934C103.582 17.9953 103.121 17.995 102.677 17.8927C102.234 17.7903 101.819 17.5885 101.465 17.3025C100.81 16.6735 100.759 15.4158 101.536 14.9457C98.0371 16.3357 95.9857 20.1189 95.4665 23.8479C94.9473 27.5769 95.6656 31.35 96.1389 35.0851C96.6122 38.8202 96.8162 42.7494 95.3517 46.2179C93.6213 50.316 89.6375 53.2532 85.2899 54.1952C80.9423 55.1371 76.3122 54.2165 72.3768 52.1424C68.4415 50.0681 65.1598 46.9017 62.479 43.3517C67.0969 46.6307 73.4858 47.8592 78.5185 45.2614Z" fill="#323232"/>
<path d="M114.141 29.3664C109.517 37.3327 118.224 50.7554 109.449 53.5427L110.172 52.8197C115.469 46.3039 104.397 32.5129 109.694 25.9971C110.517 25.0413 111.224 23.9911 111.799 22.8685" fill="#323232"/>
<path d="M106.977 33.6254C106.977 33.6254 110.895 19.0015 127.689 15.6261C127.708 15.6199 127.771 15.5946 127.853 15.5568C127.904 15.5252 127.967 15.4937 128.03 15.4621C127.841 15.3549 127.658 15.2603 127.469 15.1656L127.466 15.1651L127.464 15.1637L127.463 15.1617L127.462 15.1593C127.298 15.0078 127.134 14.8564 126.964 14.7113L126.484 14.7303C126.484 14.7303 109.633 12.0617 106.977 33.6254Z" fill="#FDAC15"/>
<path d="M2.58306e-06 287.629C-0.000225361 287.712 0.0146353 287.794 0.0437217 287.871C0.0728081 287.947 0.115552 288.016 0.169491 288.075C0.22343 288.133 0.287498 288.18 0.358015 288.211C0.428533 288.243 0.504105 288.259 0.580384 288.259H349.42C349.574 288.259 349.721 288.192 349.83 288.074C349.939 287.956 350 287.796 350 287.629C350 287.462 349.939 287.302 349.83 287.184C349.721 287.066 349.574 287 349.42 287H0.580354C0.504078 287 0.428513 287.016 0.358001 287.047C0.287488 287.079 0.223419 287.125 0.169484 287.184C0.115549 287.242 0.0728074 287.312 0.0437217 287.388C0.0146359 287.465 -0.000222106 287.547 2.58306e-06 287.629Z" fill="#F2F2F2"/>
</svg>
