<svg width="48" height="48" viewBox="0 0 48 48" fill="none" xmlns="http://www.w3.org/2000/svg">
<path d="M26.6667 22.9333L33.3333 29.6C33.8222 30.0889 34.0667 30.7111 34.0667 31.4667C34.0667 32.2222 33.8222 32.8444 33.3333 33.3333C32.8444 33.8222 32.2222 34.0667 31.4667 34.0667C30.7111 34.0667 30.0889 33.8222 29.6 33.3333L22.1333 25.8667C21.8667 25.6 21.6667 25.2996 21.5333 24.9653C21.4 24.6329 21.3333 24.2889 21.3333 23.9333V13.3333C21.3333 12.5778 21.5893 11.944 22.1013 11.432C22.6116 10.9218 23.2444 10.6667 24 10.6667C24.7556 10.6667 25.3893 10.9218 25.9013 11.432C26.4116 11.944 26.6667 12.5778 26.6667 13.3333V22.9333ZM24 48C20.6667 48 17.5449 47.3671 14.6347 46.1013C11.7227 44.8338 9.18933 43.1218 7.03467 40.9653C4.87822 38.8107 3.16622 36.2773 1.89867 33.3653C0.632889 30.4551 0 27.3333 0 24C0 20.6667 0.632889 17.544 1.89867 14.632C3.16622 11.7218 4.87822 9.18845 7.03467 7.032C9.18933 4.87733 11.7227 3.16622 14.6347 1.89867C17.5449 0.632889 20.6667 0 24 0C27.6444 0 31.1004 0.777778 34.368 2.33333C37.6338 3.88889 40.4 6.08889 42.6667 8.93333V5.33333C42.6667 4.57778 42.9227 3.944 43.4347 3.432C43.9449 2.92178 44.5778 2.66667 45.3333 2.66667C46.0889 2.66667 46.7218 2.92178 47.232 3.432C47.744 3.944 48 4.57778 48 5.33333V16C48 16.7556 47.744 17.3884 47.232 17.8987C46.7218 18.4107 46.0889 18.6667 45.3333 18.6667H34.6667C33.9111 18.6667 33.2782 18.4107 32.768 17.8987C32.256 17.3884 32 16.7556 32 16C32 15.2444 32.256 14.6107 32.768 14.0987C33.2782 13.5884 33.9111 13.3333 34.6667 13.3333H39.3333C37.5111 10.8444 35.2667 8.88889 32.6 7.46667C29.9333 6.04445 27.0667 5.33333 24 5.33333C18.8 5.33333 14.3893 7.144 10.768 10.7653C7.14489 14.3884 5.33333 18.8 5.33333 24C5.33333 29.2 7.14489 33.6107 10.768 37.232C14.3893 40.8551 18.8 42.6667 24 42.6667C28.0889 42.6667 31.7893 41.4667 35.1013 39.0667C38.4116 36.6667 40.6444 33.5111 41.8 29.6C42.0222 28.8444 42.4338 28.2107 43.0347 27.6987C43.6338 27.1884 44.3111 27.0222 45.0667 27.2C45.8667 27.3778 46.4551 27.8222 46.832 28.5333C47.2107 29.2444 47.2889 30 47.0667 30.8C45.6 35.9111 42.7333 40.0551 38.4667 43.232C34.2 46.4107 29.3778 48 24 48Z" fill="#FDAC15"/>
</svg>
