<svg width="48" height="41" viewBox="0 0 48 41" fill="none" xmlns="http://www.w3.org/2000/svg">
<path d="M32.5443 41.0012C32.2333 41.0012 31.9417 40.9522 31.6695 40.8542C31.3973 40.7578 31.1446 40.593 30.9113 40.3597L24.2625 33.7108C23.8347 33.2831 23.6209 32.7388 23.6209 32.0778C23.6209 31.4168 23.8347 30.8724 24.2625 30.4447C24.6902 30.017 25.2345 29.8032 25.8955 29.8032C26.5565 29.8032 27.1008 30.017 27.5286 30.4447L32.5443 35.4605L44.0923 23.9125C44.52 23.4848 45.0644 23.271 45.7254 23.271C46.3864 23.271 46.9307 23.4848 47.3584 23.9125C47.7861 24.3402 48 24.8846 48 25.5456C48 26.2066 47.7861 26.7509 47.3584 27.1786L34.1774 40.3597C33.9441 40.593 33.6914 40.7578 33.4192 40.8542C33.147 40.9522 32.8554 41.0012 32.5443 41.0012ZM4.66586 4.66586L23.3293 16.3305L41.9927 4.66586H4.66586ZM4.66586 37.3269C3.38275 37.3269 2.28471 36.8704 1.37176 35.9574C0.457254 35.0429 0 33.9441 0 32.661V4.66586C0 3.38275 0.457254 2.28471 1.37176 1.37176C2.28471 0.457254 3.38275 0 4.66586 0H41.9927C43.2758 0 44.3746 0.457254 45.2891 1.37176C46.2021 2.28471 46.6586 3.38275 46.6586 4.66586V14.8141L44.3256 17.147L41.9927 19.48V9.33171L24.5541 20.2382C24.3597 20.3548 24.1551 20.4419 23.9405 20.4994C23.7274 20.5585 23.5237 20.5881 23.3293 20.5881C23.1349 20.5881 22.9311 20.5585 22.7181 20.4994C22.5034 20.4419 22.2989 20.3548 22.1045 20.2382L4.66586 9.33171V32.661H16.6804L21.3463 37.3269H4.66586Z" fill="#FDAC15"/>
</svg>
