<svg width="20" height="20" viewBox="0 0 20 20" fill="none" xmlns="http://www.w3.org/2000/svg">
<path d="M19.31 12.051C19.691 12.051 20 12.365 20 12.751V17.669C19.994 18.339 19.873 18.869 19.601 19.263C19.273 19.739 18.693 19.955 17.854 20L1.95102 19.998C1.30502 19.952 0.78302 19.696 0.444021 19.221C0.142021 18.798 -0.00197946 18.271 2.05441e-05 17.663V12.75C2.05441e-05 12.364 0.309021 12.05 0.690021 12.05C1.07002 12.05 1.37802 12.364 1.37802 12.75V17.663C1.37802 17.996 1.44302 18.235 1.56002 18.399C1.64102 18.513 1.78402 18.583 2.00002 18.6L17.817 18.601C18.237 18.578 18.444 18.501 18.472 18.461C18.556 18.338 18.618 18.068 18.622 17.661V12.75C18.622 12.364 18.93 12.05 19.311 12.05L19.31 12.051ZM9.99002 0C10.37 0 10.68 0.313 10.68 0.7L10.679 11.569L13.741 8.49C13.8048 8.42534 13.8808 8.37407 13.9647 8.3392C14.0486 8.30433 14.1385 8.28656 14.2294 8.28693C14.3202 8.28731 14.41 8.30581 14.4936 8.34137C14.5772 8.37693 14.6528 8.42882 14.716 8.494C14.8451 8.62669 14.917 8.80471 14.9162 8.98982C14.9155 9.17492 14.8422 9.35236 14.712 9.484L10.356 13.864C10.2923 13.9284 10.2165 13.9795 10.1328 14.0143C10.0492 14.0491 9.95947 14.0668 9.86889 14.0665C9.77831 14.0663 9.6887 14.0479 9.60528 14.0127C9.52186 13.9774 9.4463 13.9258 9.38302 13.861L5.08702 9.481C4.95769 9.34857 4.88545 9.1707 4.88582 8.98559C4.88619 8.80048 4.95915 8.62291 5.08902 8.491C5.15267 8.42621 5.22861 8.37479 5.31239 8.33975C5.39618 8.3047 5.48612 8.28675 5.57694 8.28693C5.66776 8.28712 5.75763 8.30544 5.84127 8.34083C5.92491 8.37622 6.00064 8.42795 6.06402 8.493L9.30002 11.794V0.699C9.30002 0.313 9.61002 0 9.99002 0Z" fill="#FDAC15"/>
</svg>
